<svg width="420" height="281" viewBox="0 0 420 281" fill="none" xmlns="http://www.w3.org/2000/svg">
<path d="M105.414 40.2336H54.04V114.968H105.414V40.2336Z" fill="#E0E0E0"/>
<path d="M102.838 40.2336H51.4639V114.968H102.838V40.2336Z" fill="#F5F5F5"/>
<path d="M96.4601 48.3264H57.8481V106.87H96.4601V48.3264Z" fill="white"/>
<path d="M96.4603 106.876C96.4603 106.876 96.4603 106.774 96.4603 106.589C96.4603 106.403 96.4603 106.117 96.4603 105.757C96.4603 105.021 96.4603 103.942 96.4603 102.548C96.4603 99.7381 96.4602 95.6524 96.421 90.4876C96.421 80.1637 96.3875 65.5404 96.3595 48.3376L96.4883 48.4669H57.8819L58.0219 48.3264C58.0219 70.413 58.0219 90.7742 58.0219 106.876L57.9099 106.763L86.0163 106.819L93.7779 106.847H95.8163H96.5219H95.8387H93.8226H86.0835L57.9099 106.904H57.7979V106.791C57.7979 90.6899 57.7979 70.3287 57.7979 48.2421V48.1016H57.9435H96.5499H96.6787V48.332C96.6787 65.5854 96.6283 80.2311 96.6171 90.5775C96.6171 95.7311 96.5891 99.8056 96.5779 102.604C96.5779 103.992 96.5779 105.06 96.5779 105.791C96.5779 106.145 96.5779 106.42 96.5779 106.606C96.5779 106.791 96.4603 106.876 96.4603 106.876Z" fill="#E0E0E0"/>
<path d="M102.99 40.2336C102.724 40.7115 102.417 41.1648 102.071 41.5881C101.478 42.3861 100.627 43.4764 99.6634 44.6566C98.7002 45.8368 97.793 46.8765 97.121 47.6183C96.7833 48.0374 96.4084 48.4249 96.001 48.776C96.291 48.3202 96.6188 47.8897 96.981 47.4891L99.4562 44.4767L101.92 41.4476C102.242 41.0133 102.6 40.6072 102.99 40.2336Z" fill="#E0E0E0"/>
<path d="M96.6562 106.684C98.5736 109.739 100.828 112.567 103.376 115.114Z" fill="white"/>
<path d="M103.393 115.137C102.962 114.825 102.567 114.464 102.217 114.064C101.321 113.15 100.473 112.192 99.6744 111.192C98.7448 110.017 97.9664 108.899 97.4344 108.073C97.1284 107.637 96.8658 107.172 96.6504 106.684C96.9967 107.086 97.3131 107.512 97.5968 107.96C98.1568 108.758 98.9632 109.849 99.8872 111.012C100.811 112.175 101.707 113.198 102.357 113.929C102.73 114.306 103.077 114.71 103.393 115.137Z" fill="#E0E0E0"/>
<path d="M51.4585 114.906L58.1785 106.578Z" fill="white"/>
<path d="M58.1897 106.578C57.1761 108.05 56.0883 109.47 54.9305 110.832C53.8471 112.252 52.688 113.612 51.4585 114.906C52.4721 113.434 53.5599 112.014 54.7177 110.652C55.8011 109.232 56.9602 107.872 58.1897 106.578Z" fill="#E0E0E0"/>
<path d="M51.4639 40.2336C52.6248 41.4841 53.7165 42.7974 54.7343 44.1676C55.8242 45.4759 56.8412 46.8437 57.7807 48.2646C56.6218 47.014 55.5319 45.7007 54.5159 44.3306C53.4245 43.0221 52.4056 41.6544 51.4639 40.2336Z" fill="#E0E0E0"/>
<path d="M84.4314 60.2126H71.501V97.0517H84.4314V60.2126Z" fill="#E0E0E0"/>
<path d="M174.681 29.342V62.0729H127.842L126.157 29.5725L174.681 29.342Z" fill="#E0E0E0"/>
<path d="M126.151 29.5725V61.9999H172.99V29.5725H126.151Z" fill="white"/>
<path d="M173.214 62.2247H125.933V29.3477H173.214V62.2247ZM126.381 61.7807H172.771V29.786H126.381V61.7807Z" fill="#E0E0E0"/>
<path d="M167.922 33.6021H131.23V57.9704H167.922V33.6021Z" fill="white"/>
<path d="M167.922 33.602H167.216H165.2H157.64L131.231 33.72L131.337 33.6133C131.337 41.0598 131.337 49.3099 131.337 57.9816L131.225 57.8692H167.916L167.821 57.9591C167.821 50.5463 167.86 44.4711 167.871 40.228C167.871 38.1149 167.871 36.4626 167.871 35.3274C167.871 34.7654 167.871 34.3382 167.871 34.0404C167.871 33.7425 167.871 33.5908 167.871 33.5908C167.871 33.5908 167.871 33.7313 167.871 34.0179C167.871 34.3045 167.871 34.7373 167.871 35.288C167.871 36.412 167.872 38.0643 167.9 40.1718C167.9 44.4205 167.927 50.5238 167.944 57.9591V58.0546H167.855H131.164H131.046V57.9366C131.046 49.265 131.046 41.0148 131.046 33.5683V33.4952H131.152L157.635 33.5458L165.172 33.5795H167.166H167.844L167.922 33.602Z" fill="#E0E0E0"/>
<path d="M126.157 29.4825C126.446 29.6222 126.717 29.7978 126.963 30.0052C127.439 30.3536 128.083 30.8482 128.8 31.4102C129.517 31.9722 130.122 32.5342 130.558 32.9107C130.808 33.1143 131.034 33.3463 131.23 33.602C130.338 32.9758 129.478 32.3043 128.654 31.59C127.778 30.9414 126.944 30.2375 126.157 29.4825Z" fill="#E0E0E0"/>
<path d="M172.995 29.5725C172.225 30.333 171.402 31.0373 170.531 31.68C169.708 32.3815 168.836 33.0238 167.922 33.6021C168.692 32.8415 169.516 32.1372 170.386 31.4946C171.208 30.7916 172.081 30.1492 172.995 29.5725Z" fill="#E0E0E0"/>
<path d="M172.956 62.0054L167.731 57.7567Z" fill="white"/>
<path d="M167.731 57.7567C168.671 58.3749 169.569 59.0546 170.419 59.7912C171.314 60.4713 172.161 61.2111 172.956 62.0054C172.016 61.3908 171.12 60.711 170.274 59.971C169.376 59.2936 168.526 58.5537 167.731 57.7567Z" fill="#E0E0E0"/>
<path d="M126.157 61.9998C126.918 61.2486 127.732 60.5536 128.593 59.9204C129.407 59.2251 130.27 58.5884 131.174 58.0153C130.416 58.7708 129.601 59.4678 128.738 60.1003C127.925 60.7951 127.062 61.4299 126.157 61.9998Z" fill="#E0E0E0"/>
<path d="M138.679 41.1946V49.3549H161.768V41.1946H138.679Z" fill="#E0E0E0"/>
<g filter="url(#filter0_d_494_695)">
<path d="M365.506 176.002C365.506 176.002 361.301 174.035 358.002 183.926C354.704 193.817 353.724 199.386 353.724 199.386C353.724 199.386 352.777 201.499 351.271 200.437C349.765 199.375 347.429 196.076 345.285 197.065C343.14 198.054 342.681 200.797 343.694 204.557C344.708 208.317 346.629 216.629 346.797 217.382C346.965 218.135 346.701 219.287 345.565 218.73C344.428 218.174 337.473 212.414 334.925 215.881C332.377 219.349 336.935 229.369 337.411 230.459C337.887 231.55 337.736 232.089 337.232 232.454C336.728 232.82 334.583 230.662 332.539 229.082C330.495 227.503 327.857 226.081 326.564 228.206C325.27 230.33 325.942 238.249 335.277 249.871L339.953 254.968L346.746 253.558C361.099 249.652 366.273 243.638 366.469 241.154C366.665 238.67 363.669 238.288 361.121 238.344C358.573 238.4 355.555 238.878 355.365 238.282C355.174 237.687 355.365 237.158 356.384 236.596C357.403 236.034 366.94 230.555 366.929 226.256C366.917 221.956 357.918 222.53 356.669 222.322C355.421 222.114 355.891 221.001 356.457 220.501C357.022 220.001 363.451 214.392 366.469 211.947C369.488 209.502 370.776 207.08 369.566 204.95C368.357 202.82 364.582 204.186 362.745 204.158C360.909 204.13 361.373 201.859 361.373 201.859C361.373 201.859 363.837 196.801 366.973 186.826C370.109 176.85 365.417 175.99 365.417 175.99" fill="#EBEBEB"/>
</g>
<path d="M339.069 256.379C341.387 249.073 345.722 236.175 349.39 225.075C353.058 213.976 356.367 203.933 358.725 196.649C359.895 193.008 360.842 190.063 361.525 188.017C361.855 187.005 362.085 186.213 362.286 185.668C362.372 185.409 362.44 185.207 362.488 185.061C362.533 184.92 362.561 184.853 362.561 184.853C362.561 184.853 362.561 184.926 362.505 185.067C362.449 185.207 362.404 185.415 362.326 185.679C362.158 186.241 361.917 187.022 361.603 188.04C360.976 190.091 360.052 193.047 358.887 196.694C356.569 204 353.287 214.049 349.619 225.143C345.951 236.237 341.589 249.14 339.231 256.424" fill="#E0E0E0"/>
<path d="M348.371 201.803C348.464 201.942 348.544 202.088 348.611 202.241C348.757 202.528 348.953 202.955 349.171 203.478C349.647 204.529 350.291 205.996 350.913 207.625C351.535 209.255 352.123 210.688 352.593 211.801C352.789 212.301 352.963 212.728 353.097 213.065C353.174 213.215 353.23 213.373 353.265 213.538C353.172 213.399 353.091 213.252 353.024 213.099C352.879 212.813 352.683 212.391 352.464 211.863C351.999 210.806 351.4 209.334 350.751 207.704C350.101 206.074 349.519 204.647 349.071 203.54L348.555 202.275C348.474 202.126 348.412 201.968 348.371 201.803Z" fill="#E0E0E0"/>
<path d="M353.92 213.56C353.892 213.504 356.849 212.099 360.523 210.413C364.196 208.727 367.187 207.412 367.243 207.468C367.299 207.524 364.308 208.929 360.635 210.61C356.961 212.29 353.92 213.622 353.92 213.56Z" fill="#E0E0E0"/>
<path d="M347.502 230.353C347.666 230.3 347.835 230.266 348.006 230.251L349.378 230.049C350.532 229.881 352.134 229.639 353.886 229.302C355.639 228.964 357.213 228.622 358.366 228.352L359.716 228.043C359.88 227.992 360.049 227.961 360.22 227.953C360.065 228.024 359.904 228.08 359.738 228.121C359.425 228.217 358.971 228.352 358.406 228.504C357.286 228.807 355.695 229.184 353.926 229.515C352.156 229.847 350.566 230.077 349.395 230.201C348.835 230.268 348.342 230.313 348.012 230.336C347.843 230.356 347.672 230.362 347.502 230.353Z" fill="#E0E0E0"/>
<path d="M340.167 220.815C340.288 220.917 340.397 221.032 340.491 221.158L341.314 222.147C342.003 222.985 342.938 224.154 343.963 225.452C344.988 226.75 345.912 227.93 346.567 228.796L347.334 229.824C347.435 229.946 347.523 230.078 347.598 230.218C347.475 230.118 347.366 230.003 347.273 229.875L346.45 228.891C345.761 228.048 344.826 226.885 343.795 225.587C342.765 224.289 341.852 223.103 341.197 222.243L340.43 221.214C340.327 221.092 340.238 220.958 340.167 220.815Z" fill="#E0E0E0"/>
<path d="M332.64 234.916C332.791 235.049 332.928 235.198 333.049 235.36C333.329 235.686 333.682 236.113 334.107 236.619C334.998 237.687 336.207 239.176 337.54 240.828C338.873 242.481 340.066 243.981 340.9 245.077L341.908 246.375C342.037 246.531 342.151 246.699 342.25 246.875C342.102 246.738 341.965 246.59 341.841 246.431L340.783 245.173C339.898 244.099 338.683 242.615 337.35 240.963C336.017 239.311 334.824 237.81 333.99 236.714C333.587 236.192 333.245 235.753 332.987 235.411C332.856 235.258 332.739 235.092 332.64 234.916Z" fill="#E0E0E0"/>
<path d="M342.16 246.521C342.365 246.459 342.575 246.412 342.787 246.381L344.518 246.066C345.979 245.796 347.995 245.414 350.207 244.942C352.419 244.47 354.413 243.975 355.852 243.61L357.56 243.183C357.767 243.121 357.979 243.076 358.193 243.048C357.996 243.138 357.792 243.209 357.583 243.262C357.185 243.385 356.608 243.56 355.903 243.756C354.469 244.161 352.481 244.672 350.263 245.15C348.046 245.628 346.024 245.993 344.557 246.223C343.823 246.341 343.224 246.426 342.815 246.476C342.599 246.512 342.379 246.527 342.16 246.521Z" fill="#E0E0E0"/>
<path d="M378 256.177C378 256.255 301.062 256.323 206.181 256.323C111.3 256.323 34.3618 256.272 34.3618 256.177C34.3618 256.081 111.283 256.03 206.203 256.03C301.123 256.03 378 256.098 378 256.177Z" fill="#263238"/>
<path d="M272.92 60.5973L267.591 65.1709L274.704 73.5168L280.032 68.9433L272.92 60.5973Z" fill="#263238"/>
<path d="M277.525 59.9485L266.56 69.4014L258.871 60.4094C261.895 56.1494 265.502 52.9348 269.819 50.9565L277.525 59.9485Z" fill="#455A64"/>
<path d="M268.408 67.8165C268.347 67.8727 266.493 65.827 264.264 63.2587C262.035 60.6904 260.277 58.566 260.344 58.5098C260.411 58.4536 262.259 60.4993 264.488 63.0676C266.717 65.636 268.47 67.7659 268.408 67.8165Z" fill="#263238"/>
<path d="M270.48 66.0182C270.037 65.5855 269.625 65.1216 269.248 64.63C268.509 63.7589 267.506 62.5506 266.403 61.2018L263.603 57.7399L262.763 56.689C262.561 56.4305 262.455 56.3124 262.455 56.2956C262.567 56.1944 264.432 58.3244 266.638 61.0164C267.758 62.3652 268.721 63.596 269.438 64.5008C269.829 64.9748 270.178 65.4826 270.48 66.0182Z" fill="#263238"/>
<path d="M273.28 63.6184C272.83 63.1871 272.413 62.7232 272.031 62.2302C271.286 61.3479 270.278 60.1171 269.169 58.7514L266.369 55.2333L265.529 54.1599C265.421 54.0319 265.323 53.8947 265.238 53.7496C265.719 54.1486 266.152 54.6032 266.526 55.1041C267.282 55.9752 268.301 57.2003 269.405 58.566C270.508 59.9316 271.499 61.1849 272.205 62.101C272.605 62.5756 272.965 63.0832 273.28 63.6184Z" fill="#263238"/>
<path d="M275.806 61.3704C275.744 61.421 273.902 59.3585 271.69 56.762C269.478 54.1656 267.742 52.0131 267.803 51.9569C267.865 51.9007 269.702 53.9689 271.914 56.571C274.126 59.173 275.867 61.3199 275.806 61.3704Z" fill="#263238"/>
<path d="M366.753 66.2784L361.909 61.1914L353.998 68.7783L358.842 73.8653L366.753 66.2784Z" fill="#263238"/>
<path d="M366.985 71.284L357.006 60.8027L365.535 52.6256C369.925 55.4356 373.319 58.8807 375.508 63.1069L366.985 71.284Z" fill="#455A64"/>
<path d="M358.675 62.5619C358.619 62.5 360.551 60.533 362.992 58.167C365.434 55.801 367.472 53.9295 367.511 53.9857C367.551 54.0419 365.635 56.0089 363.194 58.3806C360.752 60.7522 358.731 62.6181 358.675 62.5619Z" fill="#263238"/>
<path d="M360.579 64.557C360.977 64.085 361.411 63.6453 361.878 63.2419C362.701 62.4551 363.855 61.3817 365.137 60.2015L368.435 57.206L369.438 56.3068C369.679 56.0932 369.796 55.9865 369.813 55.9808C369.919 56.0876 367.898 58.0715 365.333 60.4206C364.051 61.5952 362.875 62.6686 362.012 63.3936C361.566 63.8186 361.086 64.2076 360.579 64.557Z" fill="#263238"/>
<path d="M363.11 67.2152C363.513 66.7388 363.953 66.2953 364.426 65.8889C365.26 65.0964 366.431 64.0174 367.735 62.8372L371.095 59.8361L372.12 58.9369C372.245 58.8252 372.376 58.7201 372.512 58.6222C372.142 59.1265 371.713 59.5849 371.235 59.9879C370.407 60.7915 369.236 61.8762 367.937 63.0564C366.638 64.2366 365.439 65.3044 364.577 66.0462C364.119 66.4731 363.628 66.8639 363.11 67.2152Z" fill="#263238"/>
<path d="M365.479 69.6374C365.423 69.5756 367.383 67.6254 369.852 65.2706C372.322 62.9159 374.371 61.0613 374.427 61.1231C374.483 61.1849 372.523 63.135 370.054 65.4842C367.584 67.8334 365.535 69.688 365.479 69.6374Z" fill="#263238"/>
<path d="M322.045 41.9927H313.746V54.9917H322.045V41.9927Z" fill="#263238"/>
<path d="M326.48 45.8816H309.4V31.871C315.386 30.3873 321.098 30.2974 326.497 31.871L326.48 45.8816Z" fill="#FF725E"/>
<path d="M326.698 31.9272C326.498 32.0528 326.286 32.1582 326.066 32.2419C325.481 32.5004 324.88 32.7218 324.268 32.9051C323.351 33.1887 322.415 33.4102 321.468 33.5682C320.318 33.7515 319.155 33.8491 317.99 33.8605C316.826 33.8622 315.664 33.7758 314.513 33.602C313.566 33.4546 312.631 33.2424 311.713 32.9669C311.1 32.7869 310.498 32.5711 309.91 32.3206C309.687 32.2432 309.475 32.1394 309.277 32.0115C309.277 31.9609 310.218 32.3487 311.769 32.7646C312.679 33.006 313.603 33.1937 314.535 33.3266C315.675 33.4813 316.824 33.5602 317.974 33.5626C319.124 33.5495 320.273 33.4594 321.412 33.2929C322.34 33.1581 323.26 32.9705 324.167 32.7309C325.758 32.2756 326.676 31.8766 326.698 31.9272Z" fill="#263238"/>
<path d="M315.045 45.8423C314.967 45.8423 314.899 43.1504 314.899 39.8346C314.899 36.5188 314.967 33.8268 315.045 33.8268C315.123 33.8268 315.191 36.5131 315.191 39.8346C315.191 43.156 315.129 45.8423 315.045 45.8423Z" fill="#263238"/>
<path d="M318.298 45.921C318.22 45.921 318.153 43.2178 318.153 39.8851C318.153 36.5525 318.22 33.8549 318.298 33.8549C318.377 33.8549 318.444 36.5525 318.444 39.8851C318.444 43.2178 318.382 45.921 318.298 45.921Z" fill="#263238"/>
<path d="M321.552 45.8705C321.474 45.8705 321.407 43.1672 321.407 39.8346C321.407 36.5019 321.474 33.7987 321.552 33.7987C321.631 33.7987 321.698 36.5019 321.698 39.8346C321.698 43.1672 321.636 45.8705 321.552 45.8705Z" fill="#263238"/>
<path d="M324.24 45.8704C324.156 45.8704 324.095 42.948 324.095 39.3456C324.095 35.7432 324.156 32.8208 324.24 32.8208C324.324 32.8208 324.386 35.7432 324.386 39.3456C324.386 42.948 324.341 45.8704 324.24 45.8704Z" fill="#263238"/>
<path d="M311.97 45.7861C311.892 45.7861 311.825 42.8637 311.825 39.2613C311.825 35.6589 311.892 32.7365 311.97 32.7365C312.049 32.7365 312.116 35.6589 312.116 39.2613C312.116 42.8637 312.054 45.7861 311.97 45.7861Z" fill="#263238"/>
<path d="M359.591 154.422C383.173 130.756 383.173 92.3856 359.591 68.7197C336.009 45.0537 297.776 45.0537 274.194 68.7197C250.612 92.3856 250.612 130.756 274.194 154.422C297.776 178.088 336.009 178.088 359.591 154.422Z" fill="#FF725E"/>
<path d="M316.893 161.985C344.901 161.985 367.606 139.199 367.606 111.091C367.606 82.9821 344.901 60.1958 316.893 60.1958C288.884 60.1958 266.179 82.9821 266.179 111.091C266.179 139.199 288.884 161.985 316.893 161.985Z" fill="#FAFAFA"/>
<path d="M367.607 111.091C367.607 111.091 367.607 110.815 367.567 110.27C367.528 109.725 367.567 108.91 367.461 107.848C367.261 104.749 366.777 101.675 366.016 98.6648C365.467 96.4922 364.773 94.3593 363.939 92.2804C362.957 89.802 361.778 87.4075 360.411 85.1206C357.066 79.5335 352.695 74.6342 347.531 70.6828C341.262 65.8966 333.965 62.6479 326.223 61.1962C319.66 59.9844 312.926 60.0627 306.393 61.4266C304.099 61.9264 301.839 62.574 299.628 63.3655C290.219 66.8052 282.035 72.963 276.108 81.0629C274.561 83.1723 273.183 85.401 271.987 87.7282C271.365 88.8916 270.833 90.0999 270.307 91.3138C269.78 92.5277 269.31 93.7866 268.912 95.068C268.053 97.6322 267.408 100.264 266.986 102.936C266.561 105.637 266.338 108.367 266.319 111.102C266.339 113.838 266.56 116.569 266.98 119.273C267.409 121.944 268.053 124.575 268.907 127.141C269.31 128.417 269.814 129.653 270.301 130.89C270.788 132.126 271.376 133.318 271.981 134.481C273.178 136.81 274.558 139.038 276.108 141.146C282.034 149.249 290.218 155.409 299.628 158.849C301.839 159.641 304.099 160.288 306.393 160.788C308.63 161.257 310.895 161.575 313.175 161.738C317.537 162.069 321.923 161.827 326.223 161.019C333.965 159.567 341.262 156.318 347.531 151.532C352.697 147.582 357.068 142.683 360.411 137.094C361.777 134.807 362.956 132.412 363.939 129.934C365.928 124.966 367.117 119.711 367.461 114.367C367.556 113.305 367.539 112.49 367.567 111.945C367.595 111.4 367.607 111.119 367.607 111.119C367.607 111.119 367.607 111.4 367.607 111.945C367.607 112.49 367.607 113.305 367.528 114.367C367.222 119.726 366.055 125 364.073 129.985C363.098 132.475 361.921 134.881 360.556 137.179C357.22 142.794 352.848 147.72 347.676 151.695C341.385 156.51 334.06 159.782 326.284 161.249C321.965 162.068 317.558 162.317 313.175 161.991C310.884 161.828 308.607 161.511 306.359 161.041C304.051 160.543 301.779 159.893 299.555 159.097C290.091 155.644 281.857 149.454 275.895 141.309C274.339 139.19 272.953 136.95 271.751 134.61C271.124 133.441 270.587 132.216 270.038 130.997C269.489 129.777 269.041 128.513 268.638 127.226C267.779 124.649 267.131 122.006 266.7 119.324C265.812 113.883 265.812 108.332 266.7 102.891C267.133 100.22 267.781 97.5888 268.638 95.023C269.047 93.736 269.551 92.494 270.043 91.252C270.536 90.01 271.124 88.8129 271.751 87.6439C272.957 85.3053 274.345 83.0654 275.901 80.9449C281.86 72.8009 290.092 66.613 299.555 63.1632C301.777 62.3672 304.048 61.7177 306.354 61.2187C308.604 60.7496 310.882 60.4323 313.175 60.2689C317.556 59.9423 321.961 60.1917 326.279 61.0108C334.056 62.4712 341.383 65.7436 347.671 70.5648C352.843 74.5419 357.214 79.4702 360.551 85.0868C363.059 89.3266 364.945 93.9072 366.151 98.6872C366.898 101.708 367.364 104.791 367.545 107.898C367.629 108.961 367.601 109.776 367.623 110.321C367.646 110.866 367.607 111.091 367.607 111.091Z" fill="#263238"/>
<path d="M360.164 109.247C358.557 109.315 357.246 109.247 357.241 109.107C357.235 108.966 358.529 108.775 360.136 108.685C361.743 108.595 363.054 108.651 363.065 108.82C363.076 108.989 361.76 109.18 360.164 109.247Z" fill="#263238"/>
<path d="M359.083 120.965C357.515 120.594 356.283 120.184 356.283 120.043C356.283 119.903 357.616 120.071 359.19 120.414C360.763 120.757 361.99 121.173 361.99 121.336C361.99 121.499 360.64 121.33 359.083 120.965Z" fill="#263238"/>
<path d="M354.9 131.952C353.483 131.176 352.397 130.44 352.464 130.317C352.531 130.193 353.741 130.704 355.163 131.441C356.585 132.177 357.677 132.935 357.599 133.082C357.521 133.228 356.311 132.733 354.9 131.952Z" fill="#263238"/>
<path d="M347.928 141.416C346.774 140.292 345.918 139.292 346.018 139.168C346.119 139.044 347.138 139.882 348.314 140.995C349.49 142.107 350.336 143.102 350.224 143.243C350.112 143.383 349.076 142.546 347.928 141.416Z" fill="#263238"/>
<path d="M338.688 148.666C337.882 147.266 337.322 146.075 337.445 146.002C337.568 145.929 338.341 146.997 339.17 148.379C339.998 149.762 340.558 150.953 340.418 151.043C340.278 151.133 339.5 150.054 338.688 148.666Z" fill="#263238"/>
<path d="M327.852 153.156C327.449 151.588 327.231 150.29 327.371 150.256C327.511 150.223 327.964 151.453 328.395 153.01C328.827 154.567 329.039 155.865 328.877 155.91C328.715 155.955 328.255 154.719 327.852 153.156Z" fill="#263238"/>
<path d="M316.21 154.55C316.21 152.931 316.372 151.622 316.512 151.622C316.652 151.622 316.77 152.937 316.77 154.55C316.77 156.163 316.63 157.478 316.467 157.478C316.305 157.478 316.182 156.174 316.21 154.55Z" fill="#263238"/>
<path d="M304.64 152.791C305.099 151.24 305.581 150.02 305.721 150.06C305.861 150.099 305.614 151.392 305.161 152.948C304.707 154.505 304.242 155.758 304.08 155.68C303.917 155.601 304.153 154.342 304.64 152.791Z" fill="#263238"/>
<path d="M293.927 147.952C294.784 146.586 295.574 145.536 295.697 145.609C295.82 145.682 295.238 146.867 294.403 148.25C293.569 149.632 292.774 150.678 292.634 150.594C292.494 150.509 293.071 149.323 293.927 147.952Z" fill="#263238"/>
<path d="M284.917 140.421C286.11 139.331 287.157 138.533 287.246 138.64C287.336 138.746 286.474 139.724 285.298 140.832C284.122 141.939 283.086 142.737 282.968 142.619C282.85 142.501 283.73 141.512 284.917 140.421Z" fill="#263238"/>
<path d="M278.242 130.744C279.681 130.019 280.902 129.53 280.963 129.653C281.025 129.777 279.927 130.491 278.499 131.244C277.071 131.997 275.856 132.486 275.778 132.334C275.699 132.182 276.808 131.474 278.242 130.744Z" fill="#263238"/>
<path d="M274.4 119.627C275.985 119.313 277.29 119.172 277.318 119.313C277.346 119.453 276.091 119.841 274.518 120.178C272.944 120.515 271.634 120.656 271.6 120.493C271.567 120.33 272.832 119.942 274.4 119.627Z" fill="#263238"/>
<path d="M273.689 107.904C275.296 108.022 276.59 108.236 276.584 108.376C276.579 108.517 275.263 108.556 273.656 108.46C272.048 108.365 270.749 108.157 270.76 107.988C270.772 107.82 272.082 107.758 273.689 107.904Z" fill="#263238"/>
<path d="M276.125 96.3661C277.642 96.9281 278.829 97.4901 278.785 97.6081C278.74 97.7261 277.463 97.4226 275.94 96.8943C274.417 96.3661 273.229 95.8153 273.28 95.6579C273.33 95.5006 274.613 95.8153 276.125 96.3661Z" fill="#263238"/>
<path d="M281.563 85.9411C282.873 86.8796 283.87 87.7338 283.803 87.8519C283.736 87.9699 282.582 87.318 281.255 86.4019C279.928 85.4858 278.931 84.6316 279.015 84.4911C279.099 84.3506 280.247 85.0025 281.563 85.9411Z" fill="#263238"/>
<path d="M289.576 77.3537C290.59 78.607 291.324 79.6973 291.217 79.7928C291.111 79.8883 290.176 78.9498 289.145 77.7078C288.115 76.4658 287.376 75.3811 287.504 75.2743C287.633 75.1675 288.563 76.1005 289.576 77.3537Z" fill="#263238"/>
<path d="M299.6 71.2278C300.238 72.7115 300.658 73.9592 300.524 74.0378C300.39 74.1165 299.751 72.9476 299.09 71.4751C298.43 70.0027 298.01 68.755 298.161 68.6651C298.312 68.5752 298.945 69.7498 299.6 71.2278Z" fill="#263238"/>
<path d="M310.879 68.0413C311.097 69.643 311.164 70.9581 311.019 70.9806C310.873 71.003 310.565 69.7217 310.324 68.1256C310.083 66.5295 310.016 65.2088 310.179 65.1863C310.341 65.1638 310.66 66.4396 310.879 68.0413Z" fill="#263238"/>
<path d="M322.605 68.0019C322.392 69.6036 322.107 70.8906 321.967 70.8737C321.827 70.8569 321.86 69.5362 322.051 67.9345C322.241 66.3328 322.527 65.0402 322.689 65.0627C322.851 65.0851 322.818 66.3946 322.605 68.0019Z" fill="#263238"/>
<path d="M333.912 71.1098C333.279 72.5991 332.657 73.7568 332.523 73.7006C332.388 73.6444 332.786 72.3912 333.396 70.8906C334.007 69.3901 334.634 68.238 334.785 68.3054C334.936 68.3729 334.55 69.6261 333.912 71.1098Z" fill="#263238"/>
<path d="M343.969 77.1626C342.961 78.4271 342.054 79.3768 341.942 79.2869C341.83 79.197 342.541 78.0899 343.532 76.8141C344.523 75.5384 345.425 74.5661 345.559 74.6954C345.694 74.8246 344.96 75.9037 343.969 77.1626Z" fill="#263238"/>
<path d="M352.05 85.6937C350.74 86.6379 349.614 87.3123 349.53 87.1943C349.446 87.0763 350.426 86.2052 351.72 85.2385C353.013 84.2719 354.139 83.6031 354.24 83.738C354.34 83.8729 353.36 84.7496 352.05 85.6937Z" fill="#263238"/>
<path d="M357.555 96.1019C356.043 96.6639 354.755 96.9955 354.721 96.8663C354.687 96.737 355.841 96.1525 357.359 95.5737C358.876 94.9948 360.125 94.652 360.187 94.8093C360.248 94.9667 359.067 95.5399 357.555 96.1019Z" fill="#263238"/>
<path d="M360.08 107.578C358.473 107.707 357.163 107.696 357.151 107.578C357.14 107.46 358.428 107.201 360.03 107.016C361.631 106.831 362.947 106.875 362.959 107.044C362.97 107.213 361.671 107.449 360.08 107.578Z" fill="#263238"/>
<path d="M297.198 56.0314L297.024 56.1101L296.509 56.318C296.061 56.5091 295.389 56.7395 294.532 57.116C292.118 58.1289 289.774 59.3023 287.515 60.6285C286.082 61.4603 284.564 62.455 282.968 63.5734C281.372 64.6918 279.743 65.9956 278.113 67.4625C270.958 73.7913 265.493 81.8144 262.215 90.8023C261.447 92.8592 260.871 94.8712 260.372 96.7539C259.874 98.6366 259.538 100.435 259.286 102.076C258.877 104.669 258.639 107.286 258.575 109.91C258.53 110.843 258.575 111.563 258.575 112.052C258.575 112.288 258.575 112.467 258.575 112.614C258.58 112.677 258.58 112.741 258.575 112.805C258.567 112.743 258.567 112.681 258.575 112.619C258.575 112.479 258.575 112.293 258.575 112.057C258.575 111.568 258.513 110.849 258.541 109.916C258.561 107.282 258.769 104.652 259.163 102.048C259.398 100.396 259.762 98.6029 260.215 96.6977C260.722 94.6726 261.331 92.6748 262.041 90.7124C265.304 81.6643 270.801 73.595 278.018 67.2601C279.659 65.7933 281.327 64.5288 282.907 63.3767C284.486 62.2246 286.043 61.2692 287.493 60.4487C289.767 59.1362 292.13 57.9868 294.566 57.0093C295.423 56.6496 296.111 56.4473 296.571 56.2618L297.097 56.082C297.129 56.0626 297.163 56.0457 297.198 56.0314Z" fill="white"/>
<path d="M314.054 52.7493C313.478 52.8693 312.894 52.9464 312.307 52.9797C311.22 53.0921 309.731 53.2551 308.084 53.4687C306.438 53.6822 304.954 53.907 303.879 54.0756C303.303 54.1945 302.719 54.2696 302.131 54.3004C302.688 54.1056 303.262 53.9626 303.845 53.8733C304.915 53.6541 306.399 53.3956 308.045 53.1821C309.691 52.9685 311.198 52.8336 312.29 52.7718C312.876 52.7089 313.466 52.7014 314.054 52.7493Z" fill="white"/>
<g opacity="0.4">
<path d="M276.36 141.686C276.36 141.686 302.641 183.308 343.409 161.991C385.969 139.736 362.449 88.7229 362.449 88.7229C362.449 88.7229 382.475 129.378 340.99 155.882C330.658 162.485 319.408 162.491 310.828 161.626C288.904 159.423 276.36 141.686 276.36 141.686Z" fill="black"/>
</g>
<path d="M331.027 84.0415C331.28 91.506 331.055 98.979 330.355 106.415C330.098 109.107 329.795 111.827 328.759 114.328C327.723 116.829 325.959 119.122 323.473 120.178C320.986 121.235 317.806 120.796 316.075 118.728L331.027 84.0415Z" fill="#E0E0E0"/>
<path d="M315.79 107.078L334.219 75.9318L323.098 111.096L317.414 112.799L315.79 107.078Z" fill="#FF725E"/>
<g opacity="0.4">
<path d="M334.219 75.9318L320.55 107.758L323.098 111.096L334.219 75.9318Z" fill="black"/>
</g>
<path d="M317.414 118.751C320.689 118.751 323.344 116.086 323.344 112.799C323.344 109.512 320.689 106.847 317.414 106.847C314.139 106.847 311.483 109.512 311.483 112.799C311.483 116.086 314.139 118.751 317.414 118.751Z" fill="#FAFAFA"/>
<path d="M323.344 112.799C323.291 112.315 323.21 111.835 323.103 111.36C322.76 110.078 321.999 108.949 320.942 108.151C320.165 107.565 319.254 107.183 318.292 107.041C317.331 106.898 316.349 107 315.437 107.336C314.912 107.523 314.418 107.79 313.975 108.129C313.503 108.472 313.089 108.89 312.749 109.365C312.021 110.361 311.628 111.564 311.628 112.799C311.628 114.034 312.021 115.237 312.749 116.233C313.429 117.159 314.363 117.866 315.437 118.267C316.203 118.549 317.02 118.667 317.834 118.614C318.649 118.561 319.443 118.338 320.167 117.958C320.89 117.579 321.526 117.052 322.035 116.411C322.544 115.77 322.913 115.03 323.12 114.238C323.228 113.763 323.308 113.283 323.361 112.799C323.395 113.292 323.352 113.787 323.232 114.266C322.926 115.606 322.166 116.798 321.082 117.638C320.338 118.217 319.469 118.612 318.545 118.79C317.481 118.994 316.383 118.908 315.364 118.543C314.81 118.351 314.29 118.072 313.824 117.716C313.329 117.357 312.894 116.921 312.536 116.424C311.765 115.382 311.349 114.119 311.349 112.821C311.349 111.524 311.765 110.261 312.536 109.219C312.895 108.723 313.33 108.287 313.824 107.926C314.293 107.576 314.812 107.299 315.364 107.106C316.383 106.737 317.482 106.652 318.545 106.859C319.674 107.077 320.717 107.616 321.548 108.414C322.379 109.211 322.964 110.232 323.232 111.355C323.344 111.827 323.382 112.315 323.344 112.799Z" fill="#263238"/>
<path d="M321.758 113.691C322.241 111.294 320.696 108.958 318.308 108.473C315.919 107.988 313.591 109.539 313.108 111.936C312.625 114.333 314.17 116.67 316.559 117.154C318.947 117.639 321.275 116.089 321.758 113.691Z" fill="#455A64"/>
<g filter="url(#filter1_d_494_695)">
<path d="M270.659 255.648H299.835L286.233 137.999L270.659 255.648Z" fill="#E0E0E0"/>
<path d="M127.098 137.999L108.103 257.036L270.195 259.155L286.233 137.999H127.098Z" fill="#FAFAFA"/>
<path d="M279.015 192.53H118.396L121.89 170.612H281.916L279.015 192.53Z" fill="#EBEBEB"/>
<path d="M279.026 192.547H118.378L121.878 170.629H281.932L279.026 192.547ZM118.412 192.519H279.003L281.898 170.601H121.906L118.412 192.519Z" fill="#263238"/>
<path d="M127.098 137.999L121.89 170.612H281.915L286.233 137.999H127.098Z" fill="#FF725E"/>
<path d="M127.12 137.999L286.255 137.864H286.406V138.016C281.719 173.484 276.399 213.706 270.777 256.188V256.317H268.828L108.237 256.272H108.08V256.132L127.12 137.999C126.963 138.977 119.728 184.617 108.377 256.188L108.259 256.047H268.789H270.609L270.469 256.171C276.097 213.689 281.428 173.473 286.149 138.005L286.278 138.151L127.12 137.999Z" fill="#263238"/>
<path d="M281.915 170.612C281.915 170.691 246.075 170.758 201.908 170.758C157.741 170.758 121.89 170.691 121.89 170.612C121.89 170.533 157.73 170.466 201.908 170.466C246.086 170.466 281.915 170.528 281.915 170.612Z" fill="#263238"/>
<path d="M279.015 192.53C279.015 192.614 242.984 192.676 198.554 192.676C154.123 192.676 118.087 192.614 118.087 192.53C118.087 192.446 154.107 192.384 198.554 192.384C243.001 192.384 279.015 192.451 279.015 192.53Z" fill="#263238"/>
<path d="M275.744 212.7C275.744 212.784 239.719 212.846 195.289 212.846C150.859 212.846 114.8 212.784 114.8 212.7C114.8 212.616 150.819 212.554 195.267 212.554C239.714 212.554 275.744 212.621 275.744 212.7Z" fill="#263238"/>
<path d="M272.479 232.87C272.479 232.949 236.449 233.016 192.019 233.016C147.588 233.016 111.552 232.949 111.552 232.87C111.552 232.792 147.571 232.724 192.019 232.724C236.466 232.724 272.479 232.792 272.479 232.87Z" fill="#263238"/>
<path d="M130.855 256.351C130.777 256.351 133.717 237.13 137.429 213.459C141.142 189.787 144.205 170.595 144.284 170.612C144.362 170.629 141.422 189.821 137.715 213.504C134.008 237.186 130.939 256.362 130.855 256.351Z" fill="#263238"/>
<path d="M155.624 256.351C155.54 256.351 158.485 237.13 162.193 213.459C165.9 189.787 168.969 170.595 169.053 170.612C169.137 170.629 166.191 189.821 162.478 213.504C158.765 237.186 155.68 256.362 155.624 256.351Z" fill="#263238"/>
<path d="M178.64 255.491C178.562 255.491 181.474 236.467 185.142 213.032C188.81 189.596 191.862 170.595 191.935 170.612C192.007 170.629 189.101 189.63 185.433 213.077C181.765 236.523 178.713 255.502 178.64 255.491Z" fill="#263238"/>
<path d="M201.404 256.171C201.325 256.171 204.26 236.99 207.961 213.369C211.663 189.748 214.726 170.595 214.805 170.612C214.883 170.629 211.949 189.782 208.247 213.414C204.545 237.046 201.482 256.182 201.404 256.171Z" fill="#263238"/>
<path d="M224.28 256.171C224.201 256.171 227.136 236.99 230.837 213.369C234.539 189.748 237.602 170.595 237.681 170.612C237.759 170.629 234.83 189.782 231.129 213.414C227.427 237.046 224.364 256.182 224.28 256.171Z" fill="#263238"/>
<path d="M247.139 256.272C247.061 256.272 250.001 237.068 253.708 213.408C257.415 189.748 260.478 170.573 260.562 170.589C260.646 170.606 257.701 189.787 253.994 213.453C250.286 237.119 247.218 256.306 247.139 256.272Z" fill="#263238"/>
<g opacity="0.2">
<path d="M232.747 172.141C235.503 170.915 237.227 168.038 237.939 165.099C238.65 162.159 238.538 159.091 238.644 156.062C238.751 153.033 239.109 149.913 240.649 147.311C241.562 145.777 242.844 144.501 243.858 143.023C244.871 141.545 245.622 139.747 245.247 137.965L228.01 138.055L232.747 172.141Z" fill="black"/>
</g>
<path d="M161.28 194.154C161.234 194.229 161.177 194.298 161.112 194.356L160.597 194.918C160.143 195.385 159.477 196.042 158.637 196.863C156.957 198.482 154.622 200.685 151.962 203.045C149.302 205.405 146.838 207.462 145.029 208.924C144.122 209.654 143.382 210.239 142.867 210.61L142.268 211.059C142.201 211.118 142.126 211.165 142.044 211.2C142.044 211.2 142.106 211.127 142.229 211.014L142.789 210.52L144.889 208.738C146.67 207.238 149.111 205.153 151.766 202.803C154.42 200.454 156.806 198.274 158.486 196.694L160.507 194.823L161.067 194.323C161.131 194.258 161.202 194.201 161.28 194.154Z" fill="#263238"/>
<path d="M159.987 211.424C159.749 211.216 159.526 210.991 159.32 210.75L157.567 208.873C156.055 207.26 154.028 205.091 151.794 202.691L145.959 196.565L144.189 194.705C143.966 194.484 143.758 194.247 143.567 193.997C143.821 194.185 144.057 194.396 144.273 194.626C144.71 195.042 145.337 195.655 146.104 196.419C147.639 197.948 149.733 200.089 152.001 202.494C154.269 204.9 156.285 207.114 157.719 208.738C158.435 209.547 159.012 210.211 159.399 210.671C159.617 210.904 159.814 211.156 159.987 211.424Z" fill="#263238"/>
<path d="M165.967 199.319C165.967 199.319 166.023 199.173 166.141 198.886C166.327 198.47 166.552 198.073 166.813 197.7C167.843 196.256 169.295 195.17 170.968 194.592C172.167 194.158 173.445 193.989 174.714 194.098C176.226 194.245 177.683 194.744 178.97 195.554C180.456 196.472 181.711 197.722 182.639 199.207C183.711 200.863 184.245 202.813 184.167 204.787C184.103 205.852 183.774 206.884 183.21 207.788C182.619 208.726 181.831 209.524 180.903 210.126C178.924 211.399 176.596 212.011 174.25 211.874C173.021 211.808 171.811 211.544 170.666 211.093C169.474 210.626 168.402 209.896 167.53 208.957C167.096 208.463 166.731 207.913 166.443 207.322C166.169 206.718 165.981 206.078 165.883 205.422C165.697 204.078 165.814 202.708 166.225 201.415C167.081 198.718 168.938 196.454 171.41 195.093C172.692 194.386 174.119 193.984 175.58 193.916C177.041 193.849 178.498 194.119 179.839 194.705C181.228 195.292 182.444 196.227 183.372 197.419C184.301 198.644 184.882 200.099 185.052 201.629C185.246 203.181 184.995 204.756 184.33 206.17C183.988 206.879 183.538 207.532 182.997 208.103C182.446 208.666 181.825 209.155 181.149 209.559C179.785 210.312 178.281 210.776 176.731 210.921C175.181 211.066 173.618 210.889 172.139 210.402C170.682 209.953 169.343 209.185 168.219 208.154C167.103 207.121 166.341 205.762 166.04 204.27C165.725 202.803 165.933 201.271 166.628 199.943C166.981 199.288 167.465 198.714 168.05 198.257C168.627 197.82 169.27 197.481 169.954 197.251C171.299 196.818 172.71 196.628 174.121 196.689C175.495 196.699 176.861 196.888 178.186 197.251C179.497 197.597 180.707 198.247 181.72 199.15C182.69 200.059 183.352 201.25 183.613 202.556C183.87 203.818 183.795 205.126 183.394 206.35C182.998 207.53 182.328 208.599 181.44 209.469C179.753 211.124 177.519 212.1 175.163 212.211C174.059 212.27 172.956 212.109 171.914 211.739C170.915 211.379 170.016 210.784 169.294 210.003C168.61 209.257 168.093 208.374 167.776 207.412C167.464 206.509 167.325 205.556 167.367 204.602C167.447 202.835 168.15 201.154 169.35 199.858C170.376 198.732 171.674 197.89 173.119 197.414C174.331 197.017 175.616 196.894 176.882 197.054C178.631 197.272 180.292 197.944 181.703 199.004C182.07 199.275 182.416 199.571 182.739 199.892C182.958 200.111 183.064 200.229 183.064 200.229C183.064 200.229 182.941 200.123 182.723 199.915C182.39 199.605 182.038 199.315 181.67 199.049C180.256 198.021 178.604 197.373 176.87 197.166C175.503 197.008 174.118 197.18 172.831 197.669C171.544 198.158 170.393 198.949 169.473 199.976C168.304 201.244 167.623 202.887 167.552 204.613C167.514 205.549 167.653 206.483 167.961 207.367C168.273 208.3 168.779 209.156 169.445 209.879C170.147 210.636 171.018 211.214 171.987 211.565C173.003 211.919 174.078 212.072 175.151 212.014C177.451 211.901 179.63 210.943 181.272 209.323C182.13 208.48 182.777 207.446 183.159 206.305C183.543 205.121 183.612 203.859 183.361 202.64C183.109 201.386 182.472 200.243 181.541 199.369C180.556 198.5 179.382 197.873 178.114 197.537C176.81 197.179 175.467 196.99 174.115 196.975C172.738 196.923 171.362 197.113 170.05 197.537C168.711 197.949 167.578 198.854 166.88 200.072C166.217 201.343 166.019 202.806 166.32 204.208C166.61 205.642 167.345 206.946 168.42 207.934C169.51 208.945 170.811 209.698 172.228 210.137C173.668 210.613 175.189 210.785 176.698 210.644C178.207 210.503 179.671 210.051 180.998 209.317C181.653 208.931 182.254 208.458 182.784 207.912C183.304 207.364 183.737 206.738 184.066 206.057C184.711 204.693 184.954 203.172 184.766 201.674C184.606 200.197 184.051 198.791 183.159 197.605C182.262 196.452 181.086 195.549 179.743 194.98C178.442 194.41 177.028 194.147 175.61 194.211C174.191 194.275 172.806 194.665 171.562 195.351C169.158 196.679 167.355 198.882 166.522 201.505C166.122 202.76 166.006 204.088 166.18 205.394C166.281 206.028 166.469 206.645 166.74 207.226C167.017 207.794 167.367 208.323 167.782 208.8C168.626 209.709 169.664 210.415 170.817 210.868C171.937 211.312 173.12 211.574 174.323 211.644C176.618 211.784 178.899 211.194 180.841 209.958C181.738 209.406 182.494 208.651 183.048 207.753C183.601 206.855 183.937 205.839 184.027 204.787C184.106 202.856 183.587 200.948 182.543 199.325C181.637 197.859 180.407 196.623 178.948 195.711C177.684 194.908 176.253 194.41 174.765 194.255C173.514 194.136 172.253 194.293 171.069 194.716C169.411 195.279 167.964 196.338 166.925 197.751C166.657 198.117 166.424 198.509 166.23 198.92C166.04 199.178 165.967 199.319 165.967 199.319Z" fill="#FF725E"/>
<path d="M181.138 214.836C181.188 214.898 176.747 218.708 171.214 223.35C165.682 227.992 161.134 231.696 161.101 231.634C161.067 231.572 165.491 227.762 171.024 223.125C176.557 218.489 181.087 214.774 181.138 214.836Z" fill="#263238"/>
<path d="M182.107 231.134C181.843 230.978 181.594 230.8 181.362 230.6L179.391 229.06C177.739 227.745 175.471 225.913 172.973 223.878C170.475 221.844 168.23 219.989 166.611 218.635L164.702 217.016C164.46 216.831 164.235 216.624 164.03 216.398C164.292 216.555 164.541 216.734 164.775 216.932L166.74 218.472C168.392 219.787 170.66 221.619 173.158 223.653C175.655 225.688 177.901 227.543 179.525 228.897L181.429 230.51C181.67 230.701 181.896 230.91 182.107 231.134Z" fill="#263238"/>
<path d="M227.887 215.055C227.931 215.117 223.687 218.382 218.395 222.361C213.103 226.34 208.779 229.481 208.729 229.414C208.679 229.347 212.929 226.087 218.221 222.108C223.513 218.129 227.836 214.987 227.887 215.055Z" fill="#263238"/>
<path d="M229.533 228.88C229.494 228.948 224.98 226.143 219.453 222.608C213.926 219.073 209.496 216.162 209.535 216.089C209.575 216.016 214.088 218.832 219.615 222.361C225.143 225.89 229.6 228.813 229.533 228.88Z" fill="#263238"/>
<path d="M181.866 256.176C181.804 256.12 186.217 251.478 191.716 245.819C197.215 240.159 201.723 235.602 201.796 235.658C201.869 235.714 197.445 240.356 191.946 246.021C186.447 251.686 181.922 256.233 181.866 256.176Z" fill="#FF725E"/>
<path d="M200.519 256.171C200.519 256.171 200.446 256.109 200.334 255.974L199.864 255.412C199.427 254.85 198.845 254.125 198.134 253.237C196.672 251.405 194.6 248.915 192.198 246.268C189.795 243.621 187.516 241.323 185.836 239.693L183.842 237.726L183.282 237.198C183.218 237.139 183.16 237.073 183.109 237.001C183.109 237.001 183.193 237.046 183.322 237.153L183.882 237.642C184.38 238.069 185.086 238.704 185.948 239.502C187.662 241.098 189.969 243.38 192.382 246.032C194.796 248.685 196.862 251.203 198.262 253.069C198.979 254.001 199.545 254.755 199.942 255.317L200.374 255.935C200.432 256.007 200.481 256.086 200.519 256.171Z" fill="#FF725E"/>
<path d="M154.678 232.533C154.678 232.533 154.857 246.341 151.385 254.608L130.223 250.989C130.223 250.989 136.595 237.906 134.859 230.634L154.678 232.533Z" fill="#EBEBEB"/>
<path d="M154.672 232.016C154.672 232.016 152.017 248.966 150.393 254.024L129.36 249.831C129.36 249.831 133.689 233.444 133.633 228.88L154.672 232.016Z" fill="#FF725E"/>
<path d="M135.767 236.478C135.767 236.557 138.891 237.288 142.783 238.108C146.675 238.929 149.839 239.53 149.856 239.457C149.873 239.384 146.731 238.648 142.839 237.827C138.947 237.007 135.783 236.4 135.767 236.478Z" fill="white"/>
<path d="M135.229 240.069C135.229 240.148 138.354 240.873 142.246 241.699C146.138 242.525 149.302 243.121 149.319 243.048C149.335 242.975 146.194 242.239 142.302 241.418C138.41 240.598 135.246 239.974 135.229 240.069Z" fill="white"/>
<path d="M138.32 244.133C138.679 244.289 139.055 244.403 139.44 244.47C140.163 244.644 141.165 244.875 142.268 245.111C143.372 245.347 144.385 245.538 145.119 245.673C145.511 245.771 145.913 245.82 146.317 245.819C145.945 245.661 145.556 245.546 145.158 245.476C144.441 245.296 143.439 245.066 142.33 244.835C141.221 244.605 140.213 244.403 139.485 244.273C139.104 244.18 138.713 244.132 138.32 244.133Z" fill="white"/>
<path d="M254.8 193.761C254.8 193.761 256.967 207.215 254.772 215.797L233.582 215.342C233.582 215.342 237.916 201.64 235.166 194.789L254.8 193.761Z" fill="#EBEBEB"/>
<path d="M254.705 193.255C254.705 193.255 254.565 210.177 253.708 215.341L232.557 214.336C232.557 214.336 234.41 197.7 233.677 193.255H254.705Z" fill="#455A64"/>
<path d="M236.679 200.786C236.679 200.864 239.859 200.932 243.785 200.938C247.711 200.943 250.897 200.887 250.897 200.808C250.897 200.73 247.716 200.662 243.785 200.657C239.854 200.651 236.679 200.707 236.679 200.786Z" fill="white"/>
<path d="M236.88 204.366C236.88 204.444 240.061 204.512 243.986 204.517C247.912 204.523 251.098 204.467 251.098 204.388C251.098 204.31 247.917 204.242 243.986 204.236C240.055 204.231 236.88 204.287 236.88 204.366Z" fill="white"/>
<path d="M240.671 207.665C241.061 207.749 241.46 207.784 241.859 207.771C242.592 207.771 243.606 207.811 244.726 207.816C245.846 207.822 246.854 207.816 247.587 207.777C247.986 207.793 248.384 207.761 248.775 207.681C248.385 207.598 247.986 207.564 247.587 207.58C246.854 207.552 245.846 207.535 244.726 207.53C243.606 207.524 242.592 207.53 241.859 207.569C241.46 207.553 241.062 207.585 240.671 207.665Z" fill="white"/>
<path d="M259.28 154.966C255.326 154.966 251.345 152.476 249.25 148.559C247.215 144.658 246.583 140.172 247.464 135.858C248.623 130.238 252.33 125.629 256.911 124.157C260.803 122.904 267.758 123.595 271.04 129.108C272.603 131.804 273.38 134.887 273.28 138.005C273.265 138.226 273.207 138.442 273.109 138.641C273.011 138.84 272.875 139.018 272.709 139.164C272.542 139.31 272.349 139.422 272.14 139.493C271.93 139.564 271.709 139.593 271.488 139.578C271.043 139.548 270.627 139.342 270.333 139.005C270.039 138.668 269.89 138.227 269.92 137.78C269.95 135.346 269.328 132.949 268.117 130.839C265.586 126.596 260.036 126.68 257.897 127.366C253.977 128.625 251.468 132.879 250.712 136.538C249.986 140.08 250.503 143.765 252.174 146.969C253.826 150.06 257.169 151.982 260.131 151.526C260.569 151.465 261.012 151.579 261.366 151.844C261.72 152.109 261.957 152.503 262.023 152.941C262.09 153.379 261.983 153.825 261.724 154.184C261.465 154.543 261.076 154.786 260.641 154.859C260.191 154.929 259.736 154.965 259.28 154.966Z" fill="#263238"/>
<path d="M150.819 154.966C146.86 154.966 142.884 152.476 140.79 148.559C138.752 144.659 138.119 140.172 138.998 135.858C139.978 131.115 143.293 125.652 148.518 124.146C151.037 123.461 153.708 123.597 156.145 124.534L154.935 127.681C153.181 127.012 151.263 126.908 149.447 127.383C145.594 128.507 143.086 132.789 142.313 136.538C141.587 140.08 142.103 143.765 143.774 146.969C145.426 150.065 148.775 151.982 151.732 151.526L152.242 154.859C151.771 154.932 151.295 154.968 150.819 154.966Z" fill="#263238"/>
<path d="M257.897 138.089L256.351 146.581H279.093L281.114 138.173L257.897 138.089Z" fill="#FF725E"/>
<path d="M156.582 153.623C156.583 154.341 156.372 155.044 155.975 155.642C155.577 156.24 155.013 156.706 154.351 156.981C153.69 157.257 152.962 157.329 152.26 157.189C151.558 157.049 150.913 156.704 150.406 156.195C149.9 155.687 149.555 155.04 149.416 154.335C149.277 153.63 149.349 152.9 149.623 152.236C149.898 151.573 150.362 151.006 150.958 150.607C151.554 150.209 152.254 149.997 152.97 149.998C153.927 149.999 154.845 150.382 155.522 151.061C156.199 151.741 156.58 152.662 156.582 153.623Z" fill="#263238"/>
<path d="M264.947 153.623C264.948 154.341 264.737 155.044 264.34 155.642C263.943 156.24 263.378 156.706 262.716 156.981C262.055 157.257 261.327 157.329 260.625 157.189C259.923 157.049 259.278 156.704 258.771 156.195C258.265 155.687 257.921 155.04 257.781 154.335C257.642 153.63 257.714 152.9 257.988 152.236C258.263 151.573 258.727 151.006 259.323 150.607C259.919 150.209 260.619 149.997 261.335 149.998C262.293 149.999 263.21 150.382 263.888 151.061C264.565 151.741 264.946 152.662 264.947 153.623Z" fill="#263238"/>
</g>
<path d="M205.268 83.3558L199.321 105.993L178.791 108.207V111.86L207.637 112.878L213.057 87.4809L205.268 83.3558Z" fill="#FFBE9D"/>
<path d="M213.92 113.479C213.92 113.479 181.843 111.945 172.709 119.099C163.576 126.253 168 137.999 168 137.999L219.621 137.864L224.179 111.602L213.92 113.479Z" fill="#263238"/>
<path d="M219.38 130.805C219.224 130.809 219.068 130.798 218.915 130.772C218.613 130.738 218.17 130.693 217.599 130.62C216.479 130.479 214.799 130.243 212.783 129.901C207.49 128.997 202.254 127.783 197.103 126.264C194.09 125.371 191.24 124.472 188.608 123.814C186.284 123.211 183.908 122.834 181.513 122.69C179.896 122.599 178.275 122.694 176.68 122.971C176.12 123.039 175.689 123.185 175.386 123.235C175.237 123.272 175.085 123.3 174.933 123.32C175.075 123.258 175.223 123.211 175.375 123.179C175.796 123.047 176.224 122.941 176.657 122.859C178.256 122.535 179.889 122.408 181.518 122.482C183.948 122.598 186.361 122.958 188.72 123.556C191.369 124.196 194.225 125.096 197.226 125.989C202.35 127.495 207.548 128.731 212.8 129.693C214.821 130.064 216.462 130.328 217.599 130.508L218.909 130.716C219.068 130.732 219.226 130.762 219.38 130.805Z" fill="#455A64"/>
<path d="M189.565 123.64C188.674 122.902 187.725 122.239 186.726 121.656C185.68 121.165 184.595 120.759 183.484 120.442C183.829 120.412 184.176 120.446 184.509 120.543C185.328 120.72 186.119 121.008 186.861 121.398C187.602 121.79 188.287 122.279 188.899 122.853C189.168 123.072 189.394 123.339 189.565 123.64Z" fill="#455A64"/>
<path d="M217.319 183.454L217.751 196.981L215.04 207.783C214.996 207.968 214.991 208.16 215.024 208.347C215.057 208.534 215.129 208.712 215.234 208.871C215.339 209.029 215.475 209.164 215.635 209.267C215.794 209.369 215.973 209.438 216.16 209.469C216.377 209.508 216.599 209.495 216.81 209.431C217.02 209.366 217.212 209.252 217.37 209.098C219.408 207.097 226.89 199.701 226.795 198.718C226.694 197.594 227.282 184.409 227.282 184.409L217.319 183.454Z" fill="#FF725E"/>
<g opacity="0.6">
<path d="M216.109 209.491L226.749 197.824V198.386C226.756 198.882 226.585 199.365 226.268 199.746C225.422 200.763 223.02 203.523 217.369 209.109C217.208 209.269 217.009 209.387 216.791 209.452C216.574 209.517 216.343 209.526 216.121 209.48L216.109 209.491Z" fill="white"/>
</g>
<g opacity="0.6">
<path d="M223.927 193.48C223.756 193.605 223.639 193.79 223.599 193.999C223.558 194.207 223.597 194.423 223.709 194.604C223.827 194.772 224.004 194.889 224.205 194.931C224.406 194.972 224.615 194.936 224.79 194.828C224.965 194.698 225.085 194.506 225.127 194.291C225.168 194.075 225.128 193.852 225.014 193.665C224.874 193.5 224.676 193.397 224.462 193.376C224.248 193.355 224.034 193.418 223.866 193.553" fill="white"/>
</g>
<path d="M219.139 203.545C219.061 203.584 218.747 202.882 217.946 202.505C217.451 202.31 216.922 202.215 216.39 202.224C216.39 202.191 216.546 202.084 216.86 202.033C217.276 201.983 217.697 202.053 218.074 202.235C218.451 202.417 218.768 202.704 218.988 203.062C219.145 203.337 219.167 203.534 219.139 203.545Z" fill="#263238"/>
<path d="M218.193 205.372C217.805 205.159 217.405 204.972 216.994 204.81C216.557 204.732 216.116 204.68 215.673 204.652C215.879 204.519 216.113 204.438 216.357 204.416C216.601 204.393 216.846 204.43 217.073 204.523C217.868 204.737 218.26 205.332 218.193 205.372Z" fill="#263238"/>
<path d="M220.903 201.196C220.331 200.817 219.732 200.481 219.111 200.19C218.455 199.989 217.785 199.838 217.106 199.74C217.812 199.592 218.545 199.65 219.218 199.909C219.891 200.167 220.476 200.614 220.903 201.196Z" fill="#263238"/>
<path d="M221.116 197.082C221.083 197.166 220.332 196.857 219.363 196.835C218.395 196.812 217.627 197.048 217.594 196.964C218.137 196.664 218.751 196.516 219.371 196.537C219.991 196.557 220.594 196.746 221.116 197.082Z" fill="#263238"/>
<path d="M221.088 193.109C220.498 192.923 219.886 192.819 219.268 192.8C218.656 192.871 218.056 193.028 217.487 193.266C217.487 193.238 217.611 193.064 217.919 192.884C218.331 192.65 218.792 192.518 219.265 192.497C219.738 192.477 220.209 192.569 220.64 192.766C220.948 192.918 221.111 193.075 221.088 193.109Z" fill="#263238"/>
<path d="M219.285 192.041C219.25 191.872 219.25 191.698 219.285 191.53C219.327 191.06 219.462 190.603 219.682 190.186C219.813 189.866 220.048 189.598 220.349 189.428C220.453 189.381 220.569 189.367 220.681 189.388C220.793 189.409 220.896 189.464 220.976 189.546C221.12 189.714 221.198 189.93 221.194 190.153C221.168 190.606 220.986 191.036 220.68 191.369C220.374 191.703 219.962 191.921 219.514 191.985C219.068 192.035 218.616 191.95 218.217 191.742C217.818 191.534 217.49 191.212 217.274 190.816C217.22 190.716 217.188 190.606 217.18 190.492C217.172 190.378 217.189 190.265 217.23 190.158C217.282 190.058 217.364 189.975 217.464 189.922C217.563 189.869 217.677 189.848 217.79 189.86C218.122 189.932 218.431 190.089 218.686 190.316C219.053 190.608 219.368 190.961 219.615 191.361C219.714 191.502 219.786 191.66 219.828 191.827C219.472 191.32 219.044 190.867 218.557 190.484C218.33 190.297 218.061 190.168 217.773 190.108C217.711 190.097 217.647 190.107 217.59 190.135C217.534 190.163 217.488 190.209 217.459 190.265C217.439 190.337 217.434 190.413 217.444 190.487C217.453 190.561 217.478 190.633 217.515 190.698C217.712 191.033 218 191.304 218.345 191.479C218.69 191.655 219.079 191.727 219.464 191.687C219.846 191.638 220.199 191.459 220.466 191.18C220.732 190.9 220.894 190.538 220.926 190.153C220.933 189.999 220.885 189.847 220.791 189.726C220.749 189.677 220.692 189.644 220.63 189.631C220.567 189.618 220.502 189.626 220.444 189.652C220.198 189.803 220.003 190.024 219.884 190.288C219.586 190.833 219.383 191.427 219.285 192.041Z" fill="#263238"/>
<path d="M224.151 111.602C224.151 111.602 210.28 137.92 210.09 142.512C209.899 147.103 210.09 189.428 210.09 189.428H231.56C232.12 189.428 235.34 170.359 234.685 165.97C234.029 161.581 231.717 137.988 231.717 137.988H244.07C244.07 137.988 247.458 134.352 247.335 129.738C247.262 127.192 245.605 121.988 243.975 119.228C242.917 117.458 236.135 108.191 236.135 108.191L224.151 111.602Z" fill="#263238"/>
<path d="M223.221 113.383C223.206 113.436 223.186 113.487 223.16 113.535C223.109 113.648 223.042 113.788 222.958 113.962L222.152 115.603C221.788 116.317 221.357 117.183 220.853 118.189L220.046 119.801L219.201 121.639L215.04 130.682C214.25 132.368 213.421 134.172 212.559 136.021L211.254 138.831C210.832 139.802 210.513 140.816 210.302 141.854C210.089 142.896 209.979 143.955 209.972 145.018C209.938 146.069 209.916 147.109 209.899 148.126C209.899 150.172 209.86 152.139 209.865 154.016C209.865 157.77 209.91 161.153 209.949 163.991C209.989 166.83 210.022 169.106 210.05 170.735C210.05 171.511 210.05 172.124 210.05 172.562C210.05 172.759 210.05 172.916 210.05 173.04C210.05 173.163 210.05 173.203 210.05 173.203C210.041 173.149 210.041 173.094 210.05 173.04C210.05 172.916 210.05 172.759 210.05 172.568C210.05 172.124 210.005 171.517 209.972 170.735C209.916 169.151 209.843 166.852 209.781 163.991C209.72 161.131 209.653 157.776 209.636 154.016C209.636 152.139 209.636 150.166 209.636 148.126C209.636 147.103 209.669 146.064 209.709 145.007C209.714 143.927 209.825 142.851 210.039 141.793C210.256 140.735 210.582 139.702 211.013 138.713L212.324 135.903L214.821 130.575L219.066 121.555L219.929 119.723C220.225 119.161 220.489 118.599 220.757 118.121L222.096 115.558C222.46 114.867 222.751 114.328 222.953 113.94C223.048 113.771 223.126 113.636 223.182 113.524C223.238 113.412 223.216 113.378 223.221 113.383Z" fill="#455A64"/>
<path d="M218.73 122.347C218.285 121.278 217.911 120.179 217.61 119.06C217.217 117.97 216.897 116.854 216.653 115.721C217.175 116.76 217.588 117.851 217.885 118.975C218.281 120.067 218.565 121.197 218.73 122.347Z" fill="#455A64"/>
<path d="M234.729 165.144C234.694 165.048 234.671 164.948 234.662 164.846C234.636 164.617 234.597 164.331 234.545 163.986C234.444 163.194 234.315 162.115 234.153 160.805C233.845 158.085 233.43 154.393 232.971 150.313C232.512 146.232 232.137 142.495 231.907 139.803C231.801 138.488 231.711 137.409 231.644 136.617C231.644 136.263 231.599 135.976 231.582 135.745C231.575 135.644 231.575 135.543 231.582 135.442C231.617 135.538 231.638 135.638 231.644 135.74C231.672 135.97 231.711 136.257 231.756 136.605C231.845 137.398 231.969 138.471 232.114 139.786C232.411 142.506 232.814 146.204 233.234 150.284C233.654 154.365 234.052 158.057 234.354 160.783C234.477 162.098 234.584 163.177 234.657 163.969C234.685 164.318 234.707 164.61 234.724 164.84C234.734 164.941 234.736 165.043 234.729 165.144Z" fill="#455A64"/>
<path d="M229.275 41.1159C228.945 38.8679 230.865 36.7042 233.083 36.44C235.301 36.1759 237.535 37.564 238.554 39.5929C239.028 40.6132 239.288 41.7206 239.317 42.8461C239.346 43.9717 239.143 45.0911 238.722 46.1345C238.162 47.5564 237.126 48.9951 235.62 49.1075C234.113 49.2199 232.96 48.0678 231.963 47.0056" fill="#263238"/>
<path d="M213.511 52.266C209.031 42.4141 219.671 37.4629 225.456 39.1039C230.899 40.6494 233.223 43.3695 234.119 47.0225C235.1 50.6874 234.904 54.5697 233.559 58.1164C232.853 59.8361 231.588 61.5783 229.751 61.7919" fill="#263238"/>
<path d="M228.928 44.5722C229.389 44.6201 229.815 44.8405 230.121 45.1894C230.427 45.5383 230.591 45.9901 230.58 46.4549L229.533 71.5313C229.493 74.4931 225.187 76.1678 222.023 76.1004C218.837 76.033 218.73 74.4594 218.663 71.6437C218.59 66.9398 218.59 65.1695 218.59 65.1976C218.59 65.2257 214.558 64.5232 213.724 59.246C213.304 56.6215 213.438 52.3166 213.657 48.7984C213.858 45.6344 215.947 41.7453 219.094 42.0544L228.928 44.5722Z" fill="#FFBE9D"/>
<path d="M215.717 51.7996C215.714 51.9765 215.781 52.1476 215.902 52.2759C216.024 52.4041 216.191 52.4793 216.367 52.4852C216.453 52.4921 216.539 52.4816 216.621 52.4543C216.703 52.427 216.779 52.3835 216.843 52.3264C216.908 52.2692 216.961 52.1996 216.998 52.1217C217.036 52.0437 217.057 51.9591 217.061 51.8726C217.063 51.6961 216.996 51.5258 216.875 51.3978C216.754 51.2699 216.588 51.1943 216.412 51.187C216.326 51.1801 216.239 51.1906 216.158 51.2179C216.076 51.2452 216 51.2887 215.935 51.3458C215.871 51.4029 215.818 51.4725 215.781 51.5505C215.743 51.6284 215.722 51.7131 215.717 51.7996Z" fill="#263238"/>
<path d="M214.603 51.0408C214.687 51.1251 215.202 50.7486 215.925 50.7486C216.647 50.7486 217.185 51.1139 217.263 51.024C217.341 50.9341 217.218 50.8273 216.983 50.6587C216.669 50.4408 216.295 50.3251 215.913 50.3271C215.536 50.3234 215.168 50.4439 214.866 50.6699C214.642 50.8385 214.564 51.0015 214.603 51.0408Z" fill="#263238"/>
<path d="M222.813 51.7995C222.811 51.9724 222.874 52.1395 222.991 52.2669C223.107 52.3943 223.268 52.4723 223.44 52.4851C223.526 52.492 223.612 52.4815 223.694 52.4542C223.776 52.4269 223.851 52.3834 223.916 52.3263C223.981 52.2692 224.034 52.1996 224.071 52.1216C224.108 52.0437 224.13 51.959 224.134 51.8726C224.136 51.696 224.069 51.5257 223.948 51.3978C223.826 51.2698 223.66 51.1942 223.485 51.1869C223.315 51.1793 223.149 51.2394 223.023 51.3542C222.897 51.4689 222.821 51.629 222.813 51.7995Z" fill="#263238"/>
<path d="M221.76 51.1757C221.844 51.26 222.353 50.8835 223.076 50.8835C223.798 50.8835 224.336 51.2488 224.414 51.1645C224.493 51.0802 224.369 50.9622 224.134 50.7936C223.82 50.5747 223.447 50.4589 223.065 50.462C222.688 50.4619 222.321 50.582 222.017 50.8048C221.76 50.9734 221.698 51.142 221.76 51.1757Z" fill="#263238"/>
<path d="M219.106 56.5766C218.724 56.4584 218.329 56.3867 217.93 56.363C217.745 56.363 217.566 56.3068 217.538 56.1832C217.52 55.9876 217.563 55.7913 217.661 55.6212C217.835 55.1716 218.014 54.6995 218.221 54.2049C218.729 53.005 219.141 51.7666 219.453 50.5013C218.846 51.6564 218.335 52.8594 217.924 54.0981L217.398 55.5256C217.282 55.7505 217.248 56.009 217.303 56.2562C217.33 56.3215 217.373 56.3797 217.426 56.4264C217.479 56.4731 217.542 56.5072 217.611 56.526C217.713 56.5532 217.818 56.5683 217.924 56.5709C218.316 56.6218 218.713 56.6237 219.106 56.5766Z" fill="#263238"/>
<path d="M218.607 65.1919C221.093 65.2373 223.543 64.5853 225.68 63.3092C225.68 63.3092 223.966 66.9397 218.702 66.4452L218.607 65.1919Z" fill="#EB996E"/>
<path d="M219.413 58.3299C219.552 58.1567 219.732 58.0216 219.937 57.9371C220.141 57.8526 220.364 57.8214 220.584 57.8466C220.745 57.8601 220.901 57.9065 221.044 57.9828C221.186 58.0592 221.312 58.1639 221.413 58.2906C221.509 58.4118 221.566 58.5598 221.576 58.7145C221.586 58.8693 221.548 59.0234 221.469 59.1561C221.352 59.2875 221.199 59.3808 221.03 59.4238C220.86 59.4669 220.681 59.4578 220.517 59.3977C220.172 59.2759 219.855 59.0847 219.587 58.8357C219.506 58.7776 219.435 58.7053 219.38 58.6222C219.354 58.582 219.34 58.5352 219.34 58.4873C219.34 58.4394 219.354 58.3925 219.38 58.3524" fill="#EB996E"/>
<path d="M221.245 57.0823C221.127 57.0823 221.121 57.8635 220.449 58.4255C219.777 58.9875 218.937 58.8975 218.932 58.9875C218.926 59.0774 219.117 59.1392 219.492 59.1504C219.954 59.1557 220.404 58.9987 220.763 58.7065C221.104 58.4248 221.325 58.0225 221.379 57.5825C221.385 57.2734 221.295 57.0767 221.245 57.0823Z" fill="#263238"/>
<path d="M221.413 49.9C221.486 50.0967 222.214 50.0012 223.065 50.1079C223.916 50.2147 224.605 50.4395 224.717 50.2653C224.767 50.181 224.644 49.9955 224.37 49.7988C224 49.5607 223.58 49.4142 223.143 49.3717C222.708 49.3172 222.266 49.3692 221.855 49.5235C221.542 49.6471 221.385 49.8044 221.413 49.9Z" fill="#263238"/>
<path d="M214.872 48.9277C215.001 49.0963 215.499 48.9277 216.104 48.9277C216.709 48.9277 217.224 49.0401 217.331 48.8659C217.381 48.7816 217.331 48.613 217.079 48.4612C216.783 48.2666 216.435 48.1702 216.082 48.1858C215.729 48.1932 215.387 48.3089 215.102 48.5174C214.889 48.6804 214.816 48.849 214.872 48.9277Z" fill="#263238"/>
<path d="M221.721 40.3234C219.936 40.4148 218.202 40.956 216.681 41.897C215.828 42.3408 215.07 42.9489 214.451 43.6866C213.832 44.4242 213.365 45.2771 213.074 46.1963C213.001 46.3875 212.967 46.5918 212.974 46.7967C212.982 47.0015 213.031 47.2027 213.119 47.3878C213.286 47.5994 213.52 47.7461 213.783 47.8026C214.046 47.859 214.32 47.8216 214.558 47.6969C215.033 47.4378 215.437 47.0653 215.734 46.6122C215.853 47.1077 216.135 47.5481 216.536 47.8613C216.936 48.1744 217.431 48.3418 217.938 48.3359C218.446 48.33 218.937 48.1513 219.33 47.8289C219.723 47.5065 219.995 47.0597 220.102 46.5616C220.142 47.0679 220.375 47.5392 220.753 47.8773C221.131 48.2155 221.624 48.3944 222.129 48.3769C222.634 48.3331 223.115 48.1421 223.513 47.8276C223.911 47.5131 224.209 47.0887 224.369 46.6066C224.493 47.5204 224.808 48.3977 225.293 49.1805C225.542 49.5691 225.904 49.8714 226.33 50.0464C226.756 50.2214 227.225 50.2605 227.673 50.1584C227.485 50.9354 227.497 51.7476 227.707 52.5188C227.987 53.2607 229.102 65.9562 229.852 65.6977C230.602 65.4392 230.574 52.4907 230.742 51.7376C231.115 50.2931 231.303 48.8069 231.302 47.3147C231.352 45.7775 230.856 44.2725 229.902 43.0689C228.948 41.8653 227.598 41.0416 226.094 40.7449C224.593 40.3993 223.052 40.2576 221.513 40.3234" fill="#263238"/>
<path d="M232.26 63.4441C232.26 63.4441 232.209 63.4778 232.097 63.5172C231.94 63.575 231.777 63.6146 231.61 63.6352C230.831 63.7344 230.041 63.6096 229.33 63.2753C228.619 62.941 228.017 62.411 227.595 61.7469C227.022 60.7464 226.781 59.5892 226.906 58.4423C226.99 57.234 227.27 56.1325 227.399 55.1209C227.526 54.2228 227.604 53.3186 227.634 52.412C227.634 51.6365 227.634 51.0127 227.634 50.5743C227.61 50.3502 227.61 50.124 227.634 49.8999C227.701 50.1209 227.74 50.3493 227.752 50.5799C227.813 51.1943 227.843 51.8114 227.841 52.4289C227.84 53.344 227.782 54.258 227.668 55.1658C227.545 56.1999 227.281 57.3071 227.197 58.4704C227.078 59.5593 227.297 60.6587 227.825 61.6176C228.285 62.381 228.993 62.9624 229.829 63.2643C230.391 63.4794 230.993 63.5714 231.593 63.534C232.025 63.5059 232.254 63.416 232.26 63.4441Z" fill="#263238"/>
<path d="M219.867 39.6434C220.071 40.0282 220.166 40.4616 220.142 40.8967C220.161 41.9616 219.76 42.991 219.025 43.7598C218.291 44.5286 217.283 44.9742 216.222 44.9993C215.791 45.0407 215.357 44.963 214.967 44.7745C214.967 44.7239 215.449 44.8588 216.21 44.7745C217.206 44.7067 218.14 44.2699 218.833 43.5491C219.525 42.8283 219.926 41.8749 219.957 40.8742C219.974 40.1268 219.817 39.6547 219.867 39.6434Z" fill="#455A64"/>
<path d="M220.64 45.8592C220.668 45.8592 220.601 46.2189 220.198 46.6123C219.93 46.8538 219.616 47.0386 219.276 47.1555C218.935 47.2723 218.574 47.3189 218.215 47.2923C217.511 47.2293 216.833 46.9959 216.239 46.6123C215.785 46.3257 215.539 46.1065 215.561 46.0503C215.832 46.1359 216.092 46.2549 216.334 46.4043C216.925 46.7125 217.569 46.9033 218.232 46.9663C218.89 47.0053 219.54 46.8058 220.063 46.4043C220.472 46.1458 220.607 45.8367 220.64 45.8592Z" fill="#455A64"/>
<path d="M233.324 44.2462C233.362 44.73 233.328 45.2167 233.223 45.6906C233.065 46.8644 232.623 47.9815 231.935 48.9445C231.576 49.4221 231.124 49.821 230.606 50.1167C230.088 50.4124 229.515 50.5988 228.923 50.6643C228.563 50.6968 228.2 50.6606 227.853 50.5575C227.612 50.4844 227.495 50.4114 227.5 50.3945C227.962 50.4774 228.433 50.4982 228.9 50.4563C230.014 50.2748 231.016 49.6714 231.7 48.7703C232.356 47.8392 232.805 46.7774 233.016 45.6568C233.09 45.1807 233.193 44.7096 233.324 44.2462Z" fill="#455A64"/>
<path d="M234.287 46.8033C234.339 46.9478 234.367 47.0996 234.371 47.2529C234.409 47.6621 234.418 48.0733 234.399 48.4837C234.37 49.8666 233.877 51.1992 232.999 52.266C232.504 52.8525 231.859 53.2934 231.134 53.5417C230.54 53.7369 229.906 53.7756 229.292 53.6541C228.88 53.5751 228.489 53.4105 228.144 53.1708C227.909 52.9966 227.808 52.8673 227.819 52.8561C228.279 53.1494 228.79 53.3517 229.326 53.4518C229.903 53.5351 230.493 53.4793 231.045 53.2888C231.717 53.0397 232.315 52.6218 232.781 52.0749C233.612 51.0476 234.107 49.7874 234.198 48.4669C234.287 47.4496 234.237 46.809 234.287 46.8033Z" fill="#455A64"/>
<path d="M160.474 114.732L150.31 138.061H164.304L174.272 114.547L160.474 114.732Z" fill="#455A64"/>
<path d="M153.081 89.92L164.545 112.546H200.698L199.237 109.59L188.765 109.275L180.225 90.201C179.965 89.6199 179.544 89.1265 179.011 88.7805C178.478 88.4345 177.857 88.2505 177.223 88.2508H154.101C153.902 88.2437 153.706 88.2896 153.531 88.3838C153.356 88.4779 153.209 88.617 153.105 88.7868C153.002 88.9566 152.945 89.151 152.941 89.3501C152.936 89.5492 152.985 89.7459 153.081 89.92Z" fill="#E0E0E0"/>
<path d="M171.186 100.064C171.186 100.339 171.105 100.607 170.953 100.835C170.801 101.064 170.585 101.241 170.332 101.347C170.08 101.452 169.802 101.479 169.533 101.426C169.265 101.372 169.019 101.24 168.825 101.046C168.632 100.851 168.5 100.604 168.446 100.335C168.393 100.066 168.421 99.7865 168.525 99.5328C168.63 99.2792 168.807 99.0624 169.035 98.9098C169.262 98.7573 169.53 98.6759 169.803 98.6759C170.17 98.6774 170.52 98.8241 170.78 99.0841C171.039 99.3441 171.185 99.6963 171.186 100.064Z" fill="#263238"/>
<path d="M204.551 112.591H160.356V114.755H204.551V112.591Z" fill="#455A64"/>
<path d="M190.938 113.676L204.383 138.083H210.812L212.212 135.29L213.5 132.351L204.551 114.755L190.938 113.676Z" fill="#455A64"/>
<path d="M214.301 71.8292C214.301 71.8292 206.494 74.5886 204.814 83.3558L213.058 87.4809L214.301 71.8292Z" fill="#FF725E"/>
<path d="M214.301 71.8292C214.301 71.8292 208.841 84.1145 209.048 90.8248C209.121 93.1571 210.644 99.2548 210.644 99.2548L213.483 114.35C213.483 114.35 235.217 111.4 235.698 111.4C236.18 111.4 234.97 99.0075 234.97 99.0075L238.515 75.1955C238.515 75.1955 236.891 71.9528 229.555 70.8288C225.159 70.1375 214.301 71.8292 214.301 71.8292Z" fill="#FF725E"/>
<path d="M212.24 78.9609C212.29 78.989 211.719 79.9051 211.03 81.4899C210.631 82.4179 210.294 83.3717 210.022 84.3449C209.695 85.5375 209.458 86.7529 209.311 87.981C209.182 89.2111 209.143 90.4489 209.194 91.6846C209.244 92.6936 209.362 93.6981 209.546 94.6913C209.86 96.3773 210.218 97.4114 210.162 97.4283C210.045 97.2045 209.951 96.9691 209.882 96.7258C209.782 96.4474 209.696 96.1642 209.625 95.8771C209.535 95.5399 209.418 95.1634 209.339 94.7531C209.129 93.7528 208.991 92.7386 208.925 91.7183C208.858 90.4664 208.89 89.2111 209.02 87.9642C209.169 86.719 209.418 85.488 209.765 84.2831C210.053 83.3035 210.414 82.3473 210.846 81.4225C211.003 81.0633 211.179 80.7125 211.372 80.3716C211.506 80.1073 211.653 79.8503 211.814 79.6016C211.934 79.3741 212.077 79.1595 212.24 78.9609Z" fill="#263238"/>
<path d="M216.944 71.7168L217.257 68.3448C217.292 67.9944 217.454 67.6689 217.712 67.4305C217.97 67.1921 218.307 67.0574 218.657 67.0522L229.381 66.8893C229.707 66.8854 230.021 67.0057 230.261 67.2259C230.502 67.4461 230.65 67.7496 230.675 68.0751L230.949 71.7112C230.052 73.6209 228.533 75.1669 226.643 76.0948C223.49 77.6291 218.59 77.6797 218.59 77.6797L216.944 71.7168Z" fill="#FF725E"/>
<path d="M219.749 67.0803C219.783 67.0803 219.626 67.2995 219.559 67.6423C219.498 68.1387 219.498 68.6408 219.559 69.1372C219.653 69.861 219.653 70.594 219.559 71.3178C219.366 70.6128 219.268 69.8851 219.268 69.1541C219.193 68.6336 219.216 68.1037 219.335 67.5917C219.52 67.2039 219.733 67.0522 219.749 67.0803Z" fill="#263238"/>
<path d="M222.32 71.2503C222.133 70.5619 222.042 69.8507 222.051 69.1372C222.01 68.6322 222.01 68.1247 222.051 67.6198C222.107 67.2151 222.27 67.0072 222.303 67.0578C222.337 67.1084 222.253 67.2938 222.258 67.6647C222.264 68.0357 222.32 68.5639 222.32 69.1259C222.414 69.8309 222.414 70.5453 222.32 71.2503Z" fill="#263238"/>
<path d="M225.54 71.1604C225.308 70.5046 225.167 69.8201 225.12 69.1259C224.982 68.4383 224.938 67.7348 224.991 67.0353C225.225 67.6962 225.366 68.3866 225.411 69.0866C225.547 69.7688 225.591 70.4664 225.54 71.1604Z" fill="#263238"/>
<path d="M228.318 71.374C228.062 70.6517 227.926 69.8924 227.914 69.126C227.807 68.3619 227.826 67.5853 227.97 66.8274C228.117 67.5679 228.196 68.3204 228.206 69.0754C228.314 69.8364 228.352 70.6059 228.318 71.374Z" fill="#263238"/>
<g opacity="0.3">
<path d="M230.446 84.2494C230.014 88.0316 230.3 94.5508 231.633 98.1195L237.894 87.7394L230.446 84.2494Z" fill="black"/>
</g>
<path d="M237.933 74.4144L237.967 74.4481C239.742 76.3184 241.041 78.5916 241.752 81.0741L242.906 86.3513L230.586 88.2621C229.908 86.0237 229.747 83.6596 230.115 81.3495C230.72 77.3705 237.933 74.4144 237.933 74.4144Z" fill="#FF725E"/>
<path d="M242.906 86.3513C242.826 86.3796 242.743 86.4003 242.659 86.4131L241.954 86.5424L239.316 86.9751L230.39 88.3351H230.233V88.1722C230.205 87.4247 230.183 86.6491 230.166 85.8511C230.138 83.7773 230.166 81.7935 230.289 79.9894C230.374 78.3728 230.868 76.8045 231.723 75.4316C232.297 74.5082 233.085 73.7372 234.019 73.1836C234.27 73.0333 234.537 72.9091 234.814 72.8127C234.906 72.7701 235.004 72.7417 235.105 72.7284C235.105 72.7284 234.713 72.8801 234.075 73.2904C233.186 73.8617 232.44 74.631 231.896 75.5384C231.085 76.9026 230.623 78.4473 230.552 80.0344C230.423 81.8216 230.429 83.7998 230.463 85.8736C230.463 86.6604 230.502 87.4416 230.519 88.1834L230.356 88.0429L239.316 86.7784L241.965 86.4356L242.682 86.3513C242.756 86.3416 242.831 86.3416 242.906 86.3513Z" fill="#263238"/>
<path d="M216.882 78.6013C216.255 78.2349 215.679 77.787 215.169 77.2694C214.593 76.8238 214.081 76.302 213.646 75.7183C214.848 76.5301 215.936 77.4997 216.882 78.6013Z" fill="#FAFAFA"/>
<path d="M215.219 85.1036C214.78 85.5564 214.271 85.9359 213.713 86.2276C213.2 86.6005 212.633 86.8924 212.033 87.0931C212.983 86.2733 214.054 85.606 215.208 85.1149L215.219 85.1036Z" fill="#FAFAFA"/>
<path d="M222.09 86.7054C221.991 85.9067 221.991 85.0987 222.09 84.3C222.094 83.497 222.192 82.6973 222.381 81.9171C222.479 82.714 222.479 83.52 222.381 84.3169C222.379 85.1218 222.282 85.9237 222.09 86.7054Z" fill="#FAFAFA"/>
<path d="M228.771 93.2077C228.214 92.6827 227.694 92.1193 227.214 91.5217C226.664 90.9952 226.149 90.4319 225.674 89.8357C226.346 90.227 226.941 90.7396 227.427 91.3475C227.981 91.8829 228.436 92.5127 228.771 93.2077Z" fill="#FAFAFA"/>
<path d="M229.712 79.6129C229.231 80.1146 228.683 80.546 228.082 80.8943C227.533 81.3191 226.928 81.6669 226.285 81.9284C226.767 81.4258 227.317 80.9943 227.92 80.647C228.469 80.2244 229.072 79.8767 229.712 79.6129Z" fill="#FAFAFA"/>
<path d="M223.675 74.6954C223.143 75.2142 222.544 75.6585 221.894 76.0161C221.298 76.4591 220.647 76.8219 219.957 77.0952C220.489 76.5755 221.088 76.1294 221.737 75.7689C222.336 75.3313 222.987 74.9707 223.675 74.6954Z" fill="#FAFAFA"/>
<path d="M229.118 76.6512C228.751 76.1071 228.465 75.5128 228.267 74.8865C227.991 74.291 227.803 73.6588 227.707 73.0094C228.078 73.5529 228.365 74.1498 228.558 74.7797C228.837 75.3719 229.026 76.0027 229.118 76.6512Z" fill="#FAFAFA"/>
<path d="M236.606 79.1183C235.71 78.4951 234.933 77.7167 234.31 76.8197C234.784 77.0918 235.207 77.4456 235.558 77.865C235.98 78.2156 236.335 78.6403 236.606 79.1183Z" fill="#FAFAFA"/>
<path d="M233.52 84.5978C233.342 84.0426 233.261 83.4609 233.279 82.8781C233.196 82.3025 233.213 81.7168 233.33 81.1471C233.587 82.2782 233.651 83.445 233.52 84.5978Z" fill="#FAFAFA"/>
<path d="M239.742 83.4625C239.09 83.5668 238.425 83.5439 237.782 83.3951C237.126 83.3412 236.485 83.1639 235.895 82.8724C236.545 82.8793 237.193 82.9585 237.827 83.1085C238.476 83.1577 239.118 83.2764 239.742 83.4625Z" fill="#FAFAFA"/>
<path d="M214.654 94.7869C214.197 94.1524 213.821 93.4633 213.534 92.7356C213.159 92.0488 212.869 91.3184 212.671 90.5607C213.128 91.1952 213.504 91.8842 213.791 92.612C214.168 93.2982 214.458 94.0288 214.654 94.7869Z" fill="#FAFAFA"/>
<path d="M222.88 103.655C222.354 103.175 221.896 102.625 221.519 102.02C221.07 101.468 220.693 100.86 220.399 100.21C220.927 100.691 221.386 101.241 221.766 101.846C222.218 102.395 222.593 103.004 222.88 103.655Z" fill="#FAFAFA"/>
<path d="M229.678 99.9348C229.102 100.312 228.476 100.607 227.819 100.812C227.196 101.106 226.534 101.309 225.854 101.413C227.051 100.739 228.339 100.241 229.678 99.9348Z" fill="#FAFAFA"/>
<path d="M212.929 107.117C213.198 106.057 213.651 105.052 214.267 104.15C214.172 104.694 213.983 105.217 213.707 105.695C213.533 106.211 213.269 106.693 212.929 107.117Z" fill="#FAFAFA"/>
<path d="M207.659 81.7204C207.336 81.3088 207.141 80.8101 207.099 80.2873C206.967 79.7808 206.991 79.246 207.167 78.7531C207.282 79.2406 207.357 79.7368 207.391 80.2367C207.52 80.7232 207.61 81.2194 207.659 81.7204Z" fill="#FAFAFA"/>
<path d="M217.017 101.43C216.419 101.272 215.851 101.015 215.337 100.671C214.779 100.417 214.265 100.075 213.813 99.6594C214.41 99.8201 214.978 100.076 215.493 100.418C216.049 100.676 216.563 101.017 217.017 101.43Z" fill="#FAFAFA"/>
<path d="M222.421 92.0668C221.502 93.1705 220.435 94.1408 219.251 94.9498C219.676 94.3681 220.177 93.8464 220.741 93.3987C221.237 92.88 221.803 92.4319 222.421 92.0668Z" fill="#FAFAFA"/>
<g opacity="0.3">
<path d="M219.111 91.8926C219.383 93.8517 220.254 95.6779 221.603 97.1192C223.003 98.4905 225.171 99.1817 226.991 98.468C227.189 98.4131 227.372 98.3109 227.523 98.17C227.674 98.0291 227.789 97.8537 227.859 97.6587C227.889 97.419 227.836 97.1761 227.709 96.9711C227.581 96.7662 227.387 96.612 227.159 96.5347C226.705 96.3883 226.229 96.3199 225.753 96.3324C224.395 96.243 223.082 95.8067 221.939 95.0651C220.797 94.3235 219.862 93.3011 219.223 92.0949" fill="black"/>
</g>
<path d="M226.391 96.4223C226.391 96.4223 226.262 96.4672 226.016 96.4897C225.669 96.5248 225.32 96.5248 224.974 96.4897C224.46 96.4291 223.954 96.3084 223.468 96.13C222.267 95.6968 221.201 94.9545 220.377 93.9776C220.042 93.5816 219.754 93.1478 219.52 92.685C219.355 92.3766 219.225 92.0504 219.133 91.7127C219.088 91.5922 219.064 91.4649 219.061 91.3362C219.117 91.3362 219.268 91.842 219.699 92.5838C219.951 93.0166 220.246 93.4233 220.578 93.7977C220.99 94.2533 221.45 94.6622 221.95 95.0173C222.456 95.361 222.996 95.6493 223.563 95.8771C224.028 96.0606 224.51 96.1962 225.002 96.2818C225.848 96.4054 226.391 96.3661 226.391 96.4223Z" fill="#263238"/>
<path d="M195.563 105.482L203.672 104.532L209.389 108.292L231.229 103.031L231.745 88.0148L241.449 86.7334V104.914C241.395 107.121 240.471 109.217 238.88 110.741C237.288 112.266 235.159 113.095 232.96 113.046L200.95 112.153L199.589 109.421L192.718 109.213L195.563 105.482Z" fill="#FFBE9D"/>
<path d="M230.972 103.003C230.837 103.057 230.699 103.1 230.558 103.133L229.37 103.442L224.986 104.532L210.493 108.056L209.143 108.382H209.087H209.042L203.33 104.611H203.409L195.294 105.555L195.35 105.521L193.2 108.258L192.64 108.977C192.578 109.064 192.506 109.143 192.427 109.213C192.479 109.122 192.537 109.033 192.601 108.949L193.161 108.207L195.244 105.431H195.278L203.381 104.414H203.426H203.459L209.182 108.168H209.082L210.431 107.842L224.941 104.391L229.348 103.374L230.546 103.11C230.685 103.063 230.828 103.028 230.972 103.003Z" fill="#EB996E"/>
<path d="M199.993 107.814C198.947 107.937 197.893 107.978 196.84 107.938H196.28L196.358 107.91C195.725 108.494 195.041 109.021 194.314 109.483C194.892 108.844 195.521 108.253 196.196 107.719L196.23 107.685H196.851C197.9 107.642 198.951 107.685 199.993 107.814Z" fill="#EB996E"/>
<path d="M234.998 105.459C234.581 104.798 234.039 104.225 233.402 103.773C232.727 103.39 231.983 103.146 231.213 103.054C231.439 102.975 231.682 102.956 231.918 102.998C232.49 103.058 233.041 103.251 233.526 103.56C234.012 103.869 234.42 104.286 234.718 104.779C234.87 104.977 234.966 105.212 234.998 105.459Z" fill="#EB996E"/>
<g filter="url(#filter2_d_494_695)">
<path d="M94.9479 225.514H58.3799V230.555H94.9479V225.514Z" fill="#263238"/>
<path d="M95.0096 230.622H58.3184V225.452H95.0096V230.622ZM58.4416 230.493H94.8864V225.576H58.4416V230.493Z" fill="#263238"/>
<path d="M61.7739 228.88L67.0323 254.94H86.5091L91.5995 230.561L61.7739 228.88Z" fill="#263238"/>
<path d="M61.7739 252.473L64.5795 256.351H88.2507L91.5995 252.473H61.7739Z" fill="#455A64"/>
<path d="M75.2919 229.639C75.2191 229.639 75.1295 217.567 75.0847 202.663C75.0399 187.759 75.0847 175.687 75.1407 175.687C75.1967 175.687 75.3031 187.759 75.3479 202.663C75.3927 217.567 75.3647 229.639 75.2919 229.639Z" fill="#263238"/>
<path d="M83.4401 199.426C83.4157 199.523 83.3819 199.617 83.3393 199.707C83.2553 199.915 83.1433 200.173 83.0145 200.488C82.9417 200.662 82.8633 200.848 82.7737 201.05C82.6841 201.252 82.6169 201.494 82.5329 201.736L82.2473 202.522C82.1521 202.803 82.0737 203.084 81.9785 203.422C81.544 204.897 81.2017 206.399 80.9537 207.918C80.6727 209.78 80.4857 211.656 80.3937 213.538C80.2615 216.961 80.3588 220.389 80.6849 223.8C80.8025 225.115 80.9201 226.171 81.0097 226.902C81.0433 227.245 81.0769 227.526 81.0993 227.745C81.1068 227.844 81.1068 227.944 81.0993 228.043C81.064 227.949 81.0414 227.851 81.0321 227.751C80.9929 227.531 80.9481 227.256 80.8921 226.919C80.7745 226.188 80.6233 225.132 80.4833 223.822C80.1025 220.404 79.9808 216.963 80.1193 213.526C80.2023 211.635 80.3893 209.749 80.6793 207.878C80.9383 206.356 81.3013 204.854 81.7657 203.382C81.8665 203.068 81.9505 202.764 82.0513 202.489L82.3537 201.702L82.6225 201.022C82.7121 200.814 82.8017 200.634 82.8801 200.46L83.2553 199.696C83.3022 199.596 83.3646 199.505 83.4401 199.426Z" fill="#263238"/>
<path d="M82.505 189.664C82.4741 189.799 82.4348 189.932 82.3874 190.063C82.2922 190.338 82.1634 190.715 82.0066 191.187L81.7266 191.996C81.637 192.3 81.5362 192.626 81.4298 192.974C81.217 193.671 80.9706 194.463 80.7522 195.357L80.3826 196.756C80.2706 197.245 80.1586 197.757 80.041 198.279C79.7834 199.33 79.5986 200.471 79.3634 201.651C78.9602 204.045 78.6074 206.709 78.361 209.491C78.1146 212.273 78.0306 214.965 77.997 217.399C77.9634 219.832 77.997 222.024 78.1202 223.862C78.1482 224.783 78.2098 225.609 78.2546 226.34C78.2994 227.071 78.3442 227.7 78.389 228.211C78.4338 228.723 78.4562 229.099 78.4786 229.397C78.4861 229.534 78.4861 229.671 78.4786 229.807C78.4427 229.675 78.4202 229.54 78.4114 229.403C78.3778 229.105 78.333 228.717 78.2714 228.223C78.2098 227.728 78.1482 227.099 78.0922 226.351C78.0362 225.604 77.9634 224.794 77.9186 223.873C77.7954 222.029 77.745 219.838 77.7394 217.399C77.7338 214.959 77.8514 212.279 78.0866 209.474C78.3218 206.67 78.697 204.012 79.1114 201.606C79.3522 200.409 79.5482 199.268 79.8114 198.234C79.9346 197.706 80.0578 197.195 80.1698 196.706L80.5562 195.312C80.7858 194.418 81.049 193.626 81.2786 192.929C81.3906 192.581 81.497 192.26 81.5922 191.957C81.6874 191.653 81.7994 191.395 81.8946 191.153L82.3202 190.029C82.368 189.901 82.4299 189.778 82.505 189.664Z" fill="#263238"/>
<path d="M72.9792 231.774C72.9733 231.728 72.9733 231.681 72.9792 231.634C72.9792 231.527 72.9792 231.392 72.9456 231.218C72.9176 230.836 72.884 230.302 72.8392 229.622C72.7496 228.211 72.6264 226.211 72.4696 223.738C72.156 218.775 71.6968 211.936 70.8624 204.377C70.4368 200.6 69.944 197.02 69.4288 193.772C69.16 192.153 68.9136 190.614 68.628 189.175C68.3424 187.736 68.068 186.404 67.844 185.185C67.62 183.965 67.3344 182.875 67.116 181.914C66.8976 180.953 66.7016 180.121 66.556 179.447C66.4104 178.772 66.2704 178.266 66.1752 177.89C66.1416 177.727 66.108 177.592 66.0856 177.485C66.0769 177.439 66.0769 177.391 66.0856 177.345C66.1086 177.387 66.1256 177.432 66.136 177.48L66.248 177.879C66.3544 178.25 66.4944 178.767 66.6792 179.424C66.864 180.082 67.0824 180.913 67.312 181.88C67.5416 182.847 67.8216 183.931 68.0736 185.151C68.3256 186.37 68.6336 187.697 68.8912 189.135C69.1488 190.574 69.4512 192.114 69.72 193.738C70.2464 196.987 70.7448 200.572 71.1704 204.343C72.0048 211.896 72.436 218.759 72.7048 223.727C72.8392 226.216 72.9344 228.223 72.9904 229.616C72.9904 230.296 73.0352 230.83 73.0464 231.218C73.0464 231.387 73.0464 231.527 73.0464 231.634C73.0311 231.684 73.0085 231.731 72.9792 231.774Z" fill="#263238"/>
<path d="M74.9952 181.526C74.8328 179.84 73.1136 178.525 71.4 178.508C70.5429 178.546 69.7056 178.779 68.9517 179.19C68.1978 179.601 67.5471 180.179 67.0488 180.88C66.0631 182.29 65.3507 183.875 64.9488 185.55C63.7952 189.579 63.168 193.811 63.6608 197.976C64.1536 202.14 65.8336 206.237 68.8128 209.176C69.2944 209.66 69.9328 210.137 70.588 209.991C70.9425 209.887 71.2646 209.694 71.5232 209.429C74.4391 206.75 76.7502 203.476 78.3014 199.826C79.8526 196.177 80.6079 192.237 80.5168 188.27C80.472 186.691 80.2648 185.038 79.3968 183.723C78.5288 182.408 76.4848 181.003 75.0008 181.532" fill="#FF725E"/>
<path d="M62.2105 167.813L59.8025 172.197C59.7465 172.298 59.6737 172.416 59.5561 172.422C59.4385 172.427 59.3321 172.315 59.2649 172.208L52.8921 162.418L54.3593 161.581L62.2105 167.813Z" fill="#FF725E"/>
<g opacity="0.2">
<path d="M62.2105 167.813L59.8025 172.197C59.7465 172.298 59.6737 172.416 59.5561 172.422C59.4385 172.427 59.3321 172.315 59.2649 172.208L52.8921 162.418L54.3593 161.581L62.2105 167.813Z" fill="black"/>
</g>
<path d="M75.141 175.709L53.4018 162.834C53.2781 162.786 53.1649 162.715 53.0688 162.623C52.9727 162.531 52.8956 162.422 52.8418 162.3C52.7578 161.98 52.9986 161.665 53.2282 161.423C54.7241 159.868 56.5361 158.653 58.5411 157.863C60.5462 157.073 62.6973 156.725 64.8482 156.843C66.9983 156.998 69.0784 157.676 70.9087 158.819C72.7391 159.962 74.2647 161.535 75.3538 163.402C77.4482 167.161 77.521 172.141 75.113 175.709" fill="#FF725E"/>
<path d="M56.5601 158.726C56.653 158.7 56.7493 158.689 56.8457 158.692C57.0305 158.692 57.3105 158.647 57.6689 158.653C58.6782 158.639 59.6867 158.718 60.6817 158.889C62.164 159.144 63.6088 159.584 64.9825 160.198C67.3533 161.269 69.4588 162.852 71.1483 164.835C72.8377 166.818 74.0692 169.152 74.7545 171.669C75.035 172.645 75.2225 173.646 75.3145 174.658C75.3593 175.012 75.3481 175.293 75.3593 175.485C75.3689 175.58 75.3689 175.676 75.3593 175.771C75.3593 175.771 75.3089 175.378 75.2193 174.647C75.0953 173.649 74.8911 172.662 74.6089 171.697C73.6972 168.493 71.9091 165.61 69.4473 163.375C66.9856 161.14 63.9488 159.642 60.6817 159.052C59.697 158.864 58.6988 158.757 57.6969 158.731C56.9297 158.737 56.5601 158.748 56.5601 158.726Z" fill="#263238"/>
<path d="M72.1954 166.824C71.845 167.038 71.4686 167.206 71.0754 167.324C70.381 167.6 69.3954 167.948 68.3314 168.297C67.2674 168.645 66.2594 168.915 65.5314 169.095C65.1451 169.213 64.747 169.288 64.3442 169.319C64.7024 169.146 65.0778 169.01 65.4642 168.915L68.2306 168.044L70.9914 167.15C71.381 167.002 71.7843 166.892 72.1954 166.824Z" fill="#263238"/>
<path d="M68.7736 157.596C68.9682 158.392 69.0548 159.21 69.0312 160.03C69.0951 160.847 69.0499 161.669 68.8968 162.474C68.7918 161.666 68.7506 160.85 68.7736 160.035C68.7096 159.223 68.7096 158.408 68.7736 157.596Z" fill="#263238"/>
<path d="M53.2002 162.592C53.7088 162.358 54.2373 162.17 54.7794 162.03C55.765 161.721 57.1426 161.333 58.6994 160.962C60.2562 160.592 61.6338 160.311 62.6194 160.131C63.1718 160.007 63.7339 159.932 64.2994 159.906C63.7678 160.077 63.2252 160.213 62.6754 160.311C61.6674 160.535 60.2786 160.873 58.7554 161.221C57.2322 161.569 55.849 161.946 54.8354 162.204C54.2995 162.37 53.7532 162.499 53.2002 162.592Z" fill="#263238"/>
<path d="M65.1169 177.468C63.2465 176.047 61.2697 175.782 58.9233 175.855C56.5766 176.005 54.2784 176.594 52.1473 177.592C48.4793 179.199 45.0353 181.577 42.8457 184.937C40.6561 188.298 39.8889 192.749 41.5297 196.413C41.6588 196.797 41.9239 197.119 42.2745 197.318C42.6818 197.432 43.116 197.398 43.5009 197.223C47.6729 195.857 51.8673 194.48 55.7033 192.345C59.5393 190.209 63.0281 187.236 65.0833 183.353C65.6096 182.446 65.9486 181.443 66.0801 180.402C66.1362 179.876 66.0798 179.343 65.9147 178.84C65.7496 178.337 65.4795 177.875 65.1225 177.485" fill="#FF725E"/>
<path d="M65.1505 177.03C65.0571 177.084 64.9574 177.125 64.8537 177.154L63.9801 177.457L63.3473 177.665C63.1177 177.749 62.8713 177.851 62.6081 177.957C62.0817 178.171 61.4881 178.384 60.8217 178.699L59.8025 179.166C59.4441 179.329 59.0913 179.531 58.7161 179.728C57.9601 180.099 57.1985 180.576 56.3809 181.06C52.8888 183.232 49.7812 185.973 47.1857 189.169C46.6257 189.917 46.0377 190.619 45.5729 191.327C45.3321 191.676 45.0913 192.002 44.8785 192.333L44.3185 193.289C43.9265 193.89 43.6353 194.475 43.3553 194.975C43.2209 195.222 43.0865 195.452 42.9745 195.672C42.8625 195.891 42.7729 196.087 42.6889 196.273L42.2745 197.105C42.2354 197.205 42.1827 197.3 42.1177 197.386C42.145 197.281 42.1825 197.179 42.2297 197.082L42.5937 196.228C42.6777 196.042 42.7673 195.84 42.8625 195.615C42.9577 195.391 43.0977 195.16 43.2265 194.907C43.4953 194.396 43.7865 193.783 44.1561 193.193C44.3465 192.884 44.5369 192.558 44.7161 192.221C44.8953 191.884 45.1641 191.558 45.3993 191.204C45.8585 190.484 46.4241 189.776 47.0009 189.017C48.306 187.407 49.7367 185.904 51.2793 184.521C52.8391 183.162 54.5058 181.931 56.2633 180.84C57.0865 180.357 57.8593 179.885 58.6209 179.52C59.0017 179.329 59.3601 179.132 59.7409 178.958L60.7769 178.508C61.4321 178.199 62.0481 177.997 62.5857 177.794C62.8545 177.699 63.1009 177.603 63.3361 177.525L63.9745 177.334L64.8649 177.081C64.9587 177.057 65.0542 177.04 65.1505 177.03Z" fill="#263238"/>
<path d="M50.5458 184.965C49.057 185.535 47.5391 186.024 45.9986 186.432C44.4813 186.927 42.9369 187.335 41.373 187.652C42.8619 187.083 44.3798 186.593 45.9202 186.185C47.4385 185.693 48.9827 185.286 50.5458 184.965Z" fill="#263238"/>
<path d="M50.3552 195.014C50.2788 194.544 50.2451 194.068 50.2544 193.592C50.2544 192.715 50.2544 191.496 50.2544 190.158C50.2544 188.821 50.3664 187.601 50.4392 186.724C50.4506 186.247 50.5107 185.773 50.6184 185.308C50.6561 185.783 50.6561 186.261 50.6184 186.736C50.5848 187.697 50.5512 188.866 50.512 190.164C50.4728 191.462 50.4505 192.631 50.4225 193.592C50.4434 194.067 50.4209 194.543 50.3552 195.014Z" fill="#263238"/>
<path d="M58.9571 190.642C58.8843 190.642 58.6547 188.175 58.4475 185.123C58.2403 182.071 58.1227 179.593 58.1955 179.593C58.2683 179.593 58.4923 182.054 58.7051 185.106C58.9179 188.158 59.0299 190.636 58.9571 190.642Z" fill="#263238"/>
<path d="M48.2554 179.351C48.7382 179.29 49.2257 179.275 49.7114 179.306C50.6074 179.306 51.8506 179.34 53.2226 179.385C54.5946 179.43 55.8322 179.486 56.7282 179.537C57.2147 179.543 57.6998 179.59 58.1786 179.677C57.6958 179.738 57.2082 179.753 56.7226 179.722C55.8266 179.722 54.5834 179.694 53.2114 179.643C51.8394 179.593 50.6018 179.542 49.7002 179.492C49.2155 179.486 48.7321 179.439 48.2554 179.351Z" fill="#263238"/>
<path d="M69.7481 210.345C69.7232 210.246 69.7119 210.144 69.7145 210.042C69.7145 209.823 69.7145 209.536 69.6753 209.188C69.6417 208.44 69.6361 207.367 69.6753 206.029C69.7145 204.692 69.7873 203.112 69.9441 201.359C70.1009 199.606 70.3585 197.678 70.7113 195.672C71.0641 193.665 71.5009 191.783 71.9433 190.052C72.3857 188.321 72.8673 186.831 73.3041 185.556C73.7409 184.28 74.1105 183.308 74.4241 182.599C74.5585 182.273 74.6649 182.037 74.7545 181.807C74.7888 181.713 74.8319 181.623 74.8833 181.537C74.871 181.637 74.8426 181.734 74.7993 181.824L74.4801 182.65C74.2225 183.347 73.8697 184.336 73.4609 185.629C73.0521 186.921 72.6041 188.439 72.1617 190.125C71.7193 191.811 71.3049 193.71 70.9465 195.711C70.5881 197.712 70.3473 199.645 70.1681 201.37C69.9889 203.096 69.8881 204.697 69.8433 206.024C69.7985 207.35 69.7705 208.429 69.7705 209.176C69.7705 209.525 69.7705 209.806 69.7705 210.031C69.7704 210.136 69.7629 210.241 69.7481 210.345Z" fill="#263238"/>
<path d="M70.8903 195.458C70.6361 195.807 70.3451 196.127 70.0223 196.413C69.4623 196.975 68.6615 197.728 67.7543 198.532C66.8471 199.336 65.9903 200.027 65.3575 200.516C65.0338 200.798 64.6808 201.045 64.3047 201.252C64.5897 200.929 64.9047 200.633 65.2455 200.37L67.5807 198.335L69.8991 196.279C70.2027 195.974 70.5346 195.699 70.8903 195.458Z" fill="#263238"/>
<path d="M77.7731 201.016C77.4325 200.614 77.1236 200.185 76.8491 199.735L74.7043 196.588L72.5091 193.474C72.1835 193.059 71.8896 192.619 71.6299 192.159C72.0089 192.526 72.352 192.929 72.6547 193.362C73.2595 194.132 74.0659 195.211 74.8947 196.441C75.7235 197.672 76.4739 198.802 76.9835 199.634C77.2892 200.069 77.5536 200.532 77.7731 201.016Z" fill="#263238"/>
<path d="M74.1667 183.521C74.2059 183.583 71.9267 185.128 69.0651 186.972C66.2035 188.815 63.8571 190.265 63.8179 190.203C63.7787 190.141 66.0579 188.596 68.9251 186.753C71.7923 184.909 74.1331 183.465 74.1667 183.521Z" fill="#263238"/>
<path d="M80.6399 190.518C79.4331 189.51 78.2798 188.439 77.1847 187.309C76.0316 186.246 74.9379 185.121 73.9087 183.937C75.1198 184.943 76.2751 186.014 77.3695 187.146C78.5233 188.206 79.6153 189.332 80.6399 190.518Z" fill="#263238"/>
<path d="M82.2363 190.366L84.1963 190.203C85.5901 190.089 86.9427 189.673 88.1611 188.984C88.7574 188.635 89.3746 188.323 90.0091 188.051C92.4339 187.079 95.1443 187.253 97.7539 187.118C102.03 186.902 106.219 185.828 110.074 183.96C110.305 183.857 110.501 183.687 110.634 183.471C111.037 182.734 110.287 182.077 109.643 181.678C106.333 179.632 102.968 177.564 99.2211 176.547C95.4747 175.53 91.2131 175.704 88.0211 177.912C84.2691 180.509 82.8971 185.837 82.2643 190.366" fill="#FF725E"/>
<path d="M110.65 183.212C110.537 183.166 110.427 183.113 110.32 183.055L109.39 182.566C108.584 182.139 107.425 181.509 105.952 180.807C104.246 179.961 102.467 179.273 100.638 178.75C98.3998 178.104 96.0562 177.913 93.744 178.188C91.4284 178.446 89.2416 179.389 87.4608 180.897C86.0698 182.194 84.957 183.762 84.1904 185.505C83.5016 186.983 83.0704 188.242 82.768 189.096L82.4152 190.091C82.3804 190.209 82.3355 190.324 82.2808 190.434C82.2969 190.311 82.325 190.191 82.3648 190.074C82.4432 189.821 82.544 189.484 82.6672 189.068C83.0409 187.84 83.4859 186.636 84 185.46C84.7546 183.676 85.8723 182.07 87.2816 180.745C89.0874 179.184 91.3198 178.205 93.688 177.935C96.0316 177.651 98.4082 177.842 100.677 178.497C102.517 179.039 104.303 179.75 106.014 180.621C107.475 181.352 108.623 182.004 109.418 182.459L110.326 182.993C110.443 183.052 110.552 183.126 110.65 183.212Z" fill="#263238"/>
<path d="M105.941 185.769C105.902 185.825 103.331 184.162 100.207 182.049C97.0819 179.936 94.5787 178.171 94.6067 178.115C94.6347 178.058 97.2107 179.722 100.335 181.835C103.46 183.948 105.98 185.707 105.941 185.769Z" fill="#263238"/>
<path d="M103.477 177.862C102.169 178.274 100.789 178.403 99.4282 178.238C100.094 178.099 100.77 178.02 101.45 178.002C102.12 177.897 102.799 177.85 103.477 177.862Z" fill="#263238"/>
<path d="M91.9692 175.794C91.4794 176.957 90.8372 178.049 90.0596 179.042C90.26 178.443 90.5427 177.876 90.8996 177.356C91.1804 176.787 91.5406 176.261 91.9692 175.794Z" fill="#263238"/>
<path d="M94.2647 187.287C93.8317 187.106 93.4188 186.879 93.0327 186.612C92.2879 186.163 91.2855 185.488 90.2327 184.718C89.1799 183.948 88.2223 183.201 87.5391 182.661C87.1567 182.39 86.8004 182.083 86.4751 181.745C86.8912 181.963 87.2851 182.221 87.6511 182.515L90.3895 184.51C91.4535 185.286 92.4335 185.966 93.1503 186.46C93.5451 186.703 93.9179 186.979 94.2647 187.287Z" fill="#263238"/>
<path d="M85.12 198.734C83.2496 198.234 81.0152 200.061 80.64 201.966C80.2648 203.871 80.9704 205.816 81.7992 207.586C83.5827 211.517 86.2283 214.992 89.5384 217.753C92.8771 220.5 97.0429 222.035 101.36 222.108C100.57 218.421 101.567 214.566 101.13 210.817C100.74 207.516 99.2455 204.445 96.8907 202.106C94.5359 199.767 91.4602 198.299 88.1664 197.942C86.9736 197.813 85.5904 197.627 85.1144 198.734" fill="#FF725E"/>
<path d="M101.36 222.108C101.266 222.077 101.176 222.035 101.091 221.984C100.846 221.846 100.612 221.688 100.391 221.512C99.6068 220.827 98.9768 219.982 98.5431 219.034C98.2463 218.472 97.9103 217.82 97.5855 217.117C97.2607 216.415 96.9359 215.673 96.5775 214.869C96.2183 214.047 95.8048 213.249 95.3399 212.481C94.8413 211.663 94.2796 210.885 93.6599 210.154C92.3831 208.648 91.0055 207.344 89.8127 206.091C88.7343 205 87.7525 203.817 86.8783 202.556C86.2927 201.701 85.8114 200.778 85.4447 199.808C85.3271 199.465 85.2375 199.19 85.1927 199.004C85.1617 198.911 85.1429 198.815 85.1367 198.718C85.1367 198.718 85.2655 199.1 85.5399 199.774C85.9393 200.719 86.4387 201.617 87.0295 202.455C87.9204 203.689 88.9092 204.848 89.9863 205.922C91.1847 207.159 92.5679 208.463 93.8615 209.986C94.4955 210.726 95.0703 211.515 95.5807 212.346C96.0437 213.126 96.4571 213.935 96.8183 214.768L97.8039 217.016C98.1175 217.713 98.4423 218.354 98.7335 218.933C99.1423 219.873 99.7366 220.719 100.481 221.422C101.018 221.906 101.388 222.085 101.36 222.108Z" fill="#263238"/>
<path d="M91.689 219.045C91.7002 218.619 91.7584 218.194 91.8626 217.781C92.0082 217.005 92.249 215.943 92.5738 214.785C92.8986 213.627 93.2458 212.599 93.5258 211.863C93.6484 211.454 93.8195 211.062 94.0354 210.694C93.9597 211.111 93.8473 211.521 93.6994 211.919C93.4642 212.672 93.1394 213.706 92.8258 214.858C92.5122 216.01 92.2658 217.056 92.0418 217.82C91.9646 218.239 91.8464 218.649 91.689 219.045Z" fill="#263238"/>
<path d="M101.018 209.991C100.57 209.925 100.128 209.822 99.6967 209.682C98.8903 209.474 97.7759 209.182 96.5383 208.901C95.3007 208.62 94.1695 208.406 93.3519 208.249C92.9035 208.191 92.4612 208.094 92.0303 207.957C92.4829 207.945 92.9354 207.983 93.3799 208.069C94.2087 208.176 95.3511 208.367 96.5943 208.631C97.8375 208.895 98.9519 209.233 99.7471 209.491C100.187 209.613 100.613 209.781 101.018 209.991Z" fill="#263238"/>
<path d="M84.7451 212.622C84.7662 212.127 84.8337 211.636 84.9467 211.155C85.1147 210.261 85.3723 209.025 85.7251 207.682C86.0779 206.338 86.4475 205.13 86.7387 204.265C86.8825 203.789 87.0699 203.328 87.2987 202.888C87.2174 203.374 87.0975 203.853 86.9403 204.321C86.6939 205.198 86.3467 206.406 85.9995 207.743C85.6523 209.081 85.3611 210.312 85.1539 211.194C85.0584 211.681 84.9216 212.158 84.7451 212.622Z" fill="#263238"/>
<path d="M96.7234 202.101C96.7234 202.168 94.377 201.983 91.5042 201.674C88.6314 201.365 86.3018 201.061 86.313 200.994C88.0588 201.044 89.8009 201.185 91.5322 201.415C93.2731 201.555 95.0058 201.784 96.7234 202.101Z" fill="#263238"/>
<path d="M95.0096 230.538C95.0096 230.611 86.7944 230.667 76.664 230.667C66.5336 230.667 58.3184 230.611 58.3184 230.538C58.3184 230.465 66.5336 230.409 76.664 230.409C86.7944 230.409 95.0096 230.465 95.0096 230.538Z" fill="#455A64"/>
<path d="M89.2977 241.143C89.2977 241.216 83.7593 241.278 76.9329 241.278C70.1065 241.278 64.5737 241.216 64.5737 241.143C64.5737 241.07 70.1065 241.014 76.9329 241.014C83.7593 241.014 89.2977 241.098 89.2977 241.143Z" fill="#455A64"/>
<path d="M89.5104 242.66C89.5104 242.733 83.9776 242.79 77.1512 242.79C70.3248 242.79 64.792 242.733 64.792 242.66C64.792 242.587 70.3248 242.531 77.1512 242.531C83.9776 242.531 89.5104 242.587 89.5104 242.66Z" fill="#455A64"/>
<path d="M89.5105 239.895C89.5105 239.968 83.7873 240.025 76.7257 240.025C69.6641 240.025 63.9409 239.968 63.9409 239.895C63.9409 239.822 69.6641 239.766 76.7257 239.766C83.7873 239.766 89.5105 239.822 89.5105 239.895Z" fill="#455A64"/>
</g>
<defs>
<filter id="filter0_d_494_695" x="316.064" y="173.842" width="63.9526" height="99.1259" filterUnits="userSpaceOnUse" color-interpolation-filters="sRGB">
<feFlood flood-opacity="0" result="BackgroundImageFix"/>
<feColorMatrix in="SourceAlpha" type="matrix" values="0 0 0 0 0 0 0 0 0 0 0 0 0 0 0 0 0 0 127 0" result="hardAlpha"/>
<feOffset dy="8"/>
<feGaussianBlur stdDeviation="5"/>
<feComposite in2="hardAlpha" operator="out"/>
<feColorMatrix type="matrix" values="0 0 0 0 0 0 0 0 0 0 0 0 0 0 0 0 0 0 0.2 0"/>
<feBlend mode="normal" in2="BackgroundImageFix" result="effect1_dropShadow_494_695"/>
<feBlend mode="normal" in="SourceGraphic" in2="effect1_dropShadow_494_695" result="shape"/>
</filter>
<filter id="filter1_d_494_695" x="98.0801" y="121.624" width="211.755" height="155.531" filterUnits="userSpaceOnUse" color-interpolation-filters="sRGB">
<feFlood flood-opacity="0" result="BackgroundImageFix"/>
<feColorMatrix in="SourceAlpha" type="matrix" values="0 0 0 0 0 0 0 0 0 0 0 0 0 0 0 0 0 0 127 0" result="hardAlpha"/>
<feOffset dy="8"/>
<feGaussianBlur stdDeviation="5"/>
<feComposite in2="hardAlpha" operator="out"/>
<feColorMatrix type="matrix" values="0 0 0 0 0 0 0 0 0 0 0 0 0 0 0 0 0 0 0.2 0"/>
<feBlend mode="normal" in2="BackgroundImageFix" result="effect1_dropShadow_494_695"/>
<feBlend mode="normal" in="SourceGraphic" in2="effect1_dropShadow_494_695" result="shape"/>
</filter>
<filter id="filter2_d_494_695" x="30.6475" y="154.82" width="90.1001" height="119.53" filterUnits="userSpaceOnUse" color-interpolation-filters="sRGB">
<feFlood flood-opacity="0" result="BackgroundImageFix"/>
<feColorMatrix in="SourceAlpha" type="matrix" values="0 0 0 0 0 0 0 0 0 0 0 0 0 0 0 0 0 0 127 0" result="hardAlpha"/>
<feOffset dy="8"/>
<feGaussianBlur stdDeviation="5"/>
<feComposite in2="hardAlpha" operator="out"/>
<feColorMatrix type="matrix" values="0 0 0 0 0 0 0 0 0 0 0 0 0 0 0 0 0 0 0.2 0"/>
<feBlend mode="normal" in2="BackgroundImageFix" result="effect1_dropShadow_494_695"/>
<feBlend mode="normal" in="SourceGraphic" in2="effect1_dropShadow_494_695" result="shape"/>
</filter>
</defs>
</svg>
